<?xml version="1.0" encoding="UTF-8"?>
<svg width="1122px" height="1440px" viewBox="0 0 1122 1440" version="1.1" xmlns="http://www.w3.org/2000/svg" xmlns:xlink="http://www.w3.org/1999/xlink">
    <title>bg-shape</title>
    <defs>
        <linearGradient x1="50%" y1="0%" x2="50%" y2="53.3227709%" id="linearGradient-1">
            <stop stop-color="#7C97A2" offset="0%"></stop>
            <stop stop-color="#FFFFFF" stop-opacity="0" offset="100%"></stop>
        </linearGradient>
    </defs>
    <g id="Home---Big-Law-Firm" stroke="none" stroke-width="1" fill="none" fill-rule="evenodd" opacity="0.200000003">
        <g id="Home---Single-Lawyer-1" transform="translate(-160.000000, -4042.000000)" fill="url(#linearGradient-1)">
            <g id="Group-24" transform="translate(1.000000, 3609.000000)">
                <g id="bg-shape" transform="translate(159.000000, 433.000000)">
                    <path d="M1113.97237,488 C1115.54837,491.202415 1115.54837,494.404829 1117.18764,500.87235 L1117.19829,500.871707 C1115.55918,505.706675 1113.98302,513.744057 1110.76776,518.579667 C1010.65423,688.940021 910.608491,859.348598 810.544997,1031.3325 C734.703325,1159.93062 658.861652,1288.52873 584.595173,1418.76646 C578.164641,1430.00626 568.4559,1434.84122 558.746513,1439.67651 C555.531247,1441.30907 540.96749,1436.4741 539.392297,1431.63913 C539.392297,1430.00658 541.031401,1426.80416 541.031401,1426.80416 C555.53157,1418.76678 562.025368,1404.32521 570.095004,1389.81934 C686.28486,1196.92219 800.90275,1005.66464 917.089377,812.767468 C980.00672,708.281499 1042.98862,602.155904 1105.90273,497.669935 L1107.54184,496.037382 C1109.18094,492.834968 1112.39621,489.632553 1113.97237,488 Z M1115.56322,432 L1115.56375,432.662842 L1115.56375,432.662842 L1115.56751,433.328897 C1115.59432,436.115274 1115.78874,439.068931 1117.19829,443.235363 L1117.19829,443.24179 C1117.19829,450.853148 1114.32758,456.999857 1111.30578,463.123036 L1110.80121,464.143595 L1110.80121,464.143595 C980.727522,676.230709 850.657043,886.759186 720.576932,1098.8463 C667.581569,1184.0218 616.217425,1269.20372 563.222062,1354.30209 C558.392946,1360.70439 553.563831,1367.16937 547.166753,1372.00308 C534.309983,1383.23844 521.452571,1392.90488 508.659701,1404.13992 C503.830585,1408.97298 499.001469,1408.97298 494.234969,1405.77183 C487.837892,1400.93877 481.378199,1397.73762 474.981443,1394.53647 C468.584366,1391.33532 470.152327,1389.70341 473.350866,1384.87035 C487.775598,1372.00308 502.263266,1357.56687 518.318575,1346.33183 C545.599755,1325.43002 566.484501,1298.12656 585.738027,1267.62227 C759.151417,992.771891 932.564807,716.395017 1107.53556,440.034211 C1109.16614,436.83306 1112.36468,435.201151 1115.56322,432 Z M1113.92664,542.4 C1115.56247,545.661816 1115.56247,548.861003 1117.19829,552.06019 L1117.19829,552.069825 C1117.19829,560.099107 1115.55796,568.12839 1110.77612,574.526122 C978.649102,810.635194 848.152109,1045.05812 716.091129,1279.52922 C708.932479,1292.38178 701.450577,1305.54393 693.932758,1318.74049 L688.292148,1328.64005 C680.774329,1341.83661 673.292426,1354.99876 666.133777,1367.85132 C659.716119,1379.07979 653.235644,1388.7403 640.336867,1393.57072 C633.919209,1396.7699 627.438734,1398.40081 621.021398,1401.6 C624.230227,1395.20163 627.439056,1390.37153 630.710702,1383.90989 C730.623796,1210.46133 830.469242,1037.01278 930.332405,862.006542 C989.915278,757.625873 1049.49815,654.883178 1107.50898,552.06019 L1107.50898,550.429282 C1109.14481,547.230095 1112.35364,544.030908 1113.92664,542.4 Z M1110.46313,374.4 C1115.2446,377.668728 1115.2446,382.509221 1116.8803,385.715027 L1116.87418,385.722108 C1118.50988,393.768406 1113.66559,401.814705 1108.82131,408.225995 C988.02823,593.290861 868.877941,779.997171 748.084866,965.062037 C685.298235,1061.61762 624.083526,1156.53176 561.226031,1253.08734 C556.381745,1259.49927 551.53746,1265.97397 545.120287,1270.81494 C511.272457,1303.00014 475.852706,1335.18533 440.432955,1365.73553 C429.171497,1375.4162 432.380084,1373.78183 419.482604,1368.9415 C398.532253,1357.68922 398.532253,1357.68922 416.274018,1343.16758 C459.746641,1301.30108 504.855607,1259.49895 548.328229,1216.06181 C551.536816,1212.85585 554.745402,1208.01551 558.0168,1203.17518 C711.021362,971.473971 865.66871,741.333741 1018.67327,509.552067 C1046.04015,467.685566 1075.04337,424.248428 1102.41025,382.446299 C1104.04595,379.240331 1107.25454,376.034364 1110.46313,374.4 Z M1115.23318,595.2 L1115.23372,595.863097 C1115.24097,598.84239 1115.34605,601.727687 1116.86981,603.250044 C1118.50643,612.935214 1113.65941,622.557271 1110.44901,630.607316 C996.007744,846.380708 881.569705,1058.90188 768.765713,1271.40696 C757.497884,1292.34995 746.230699,1313.29295 734.898732,1335.80731 C730.051706,1347.06482 721.994278,1355.11454 710.726448,1359.95745 C705.94227,1361.59257 701.095243,1363.16491 696.248217,1364.8 C702.670309,1353.53899 707.517336,1340.64636 714.001631,1329.38917 C800.99607,1169.96126 887.993732,1010.59131 975.046184,849.590422 C1020.18067,767.454208 1063.67789,686.947323 1108.81238,604.88517 L1108.81238,603.250044 C1110.44901,600.042585 1113.65941,598.40746 1115.23318,595.2 Z M1101.11219,348.426284 C1101.11519,348.426284 1101.12531,348.433699 1101.14222,348.447993 L1101.21296,348.510975 C1101.78564,349.033758 1104.68568,351.846113 1107.58585,353.268632 L1107.59486,353.271852 C1105.96076,356.479156 1104.38941,359.686459 1102.75531,361.321504 C1048.07496,440.182333 994.965,520.67885 940.213857,599.607296 C829.218418,762.24246 718.1554,924.797128 607.166396,1087.43229 C591.07637,1111.58125 576.62109,1132.52322 560.531063,1155.03649 C557.325608,1159.87884 552.48605,1166.29344 547.646492,1171.13579 L383.54431,1335.33259 L382.694883,1336.18206 C373.952399,1344.91525 375.158383,1343.2355 364.24915,1338.53989 C346.524377,1328.8552 346.524377,1328.8552 361.043695,1316.02663 C420.563921,1253.2651 480.084148,1190.43918 541.235903,1129.24251 C562.936776,1106.20593 580.046224,1080.84948 597.406934,1055.16519 L599.578682,1051.95309 C602.114732,1048.20399 604.660417,1044.44968 607.230756,1040.69634 C768.131023,813.663958 927.390106,585.069947 1088.29037,356.475936 C1089.92448,353.268632 1091.49583,350.061329 1094.70128,348.426284 C1096.33539,346.791239 1099.54084,346.791239 1101.11219,348.426284 Z M761.965373,1330.78192 L760.17728,1330.78192 L760.177614,1330.76605 C760.183119,1330.59673 760.279457,1329.16149 761.965373,1330.78192 Z M1115.5655,656 C1115.5655,657.632778 1117.19829,657.632778 1117.19829,659.202856 C1117.19829,668.874123 1117.19829,678.482368 1112.36263,688.154279 C1051.25697,808.731618 988.582182,929.308957 927.476517,1049.8863 C909.865543,1085.081 891.976388,1119.9981 874.048109,1154.87112 L860.5983,1181.02127 C840.423788,1220.24505 820.275401,1259.48694 800.493518,1299.07946 C790.928483,1314.9176 781.363764,1324.55231 762.503735,1329.43887 L761.871612,1329.6 L761.871612,1329.6 L761.877078,1329.58907 C774.751261,1305.4736 785.992658,1281.35813 798.867163,1258.87609 C868.011355,1127.05772 937.155546,993.605939 1006.229,861.790792 C1041.58565,795.849456 1075.37319,728.339008 1110.72985,662.468412 C1110.72985,660.835634 1112.36263,659.265556 1112.36263,657.632778 C1112.36263,656.112605 1113.77797,656.007766 1115.24032,656.000536 L1115.5655,656 L1115.5655,656 Z M1073.97807,331.680378 C1075.61243,333.315056 1077.18402,333.315056 1077.18402,334.949733 L1077.17083,334.940398 C1075.53647,338.14698 1073.96487,341.353562 1072.33051,342.98824 C1046.5567,378.385869 1020.84726,415.418819 993.502824,450.816448 C848.669979,650.370743 705.478573,848.363755 560.645728,1047.99853 C547.759145,1065.72953 533.301287,1080.1899 518.779381,1096.28558 C454.409227,1165.5099 390.039074,1234.73422 325.668921,1303.88772 C317.622652,1311.93556 317.622652,1311.93556 306.370749,1307.0943 C290.278211,1299.04646 291.912569,1300.68114 303.164793,1287.79235 C385.262487,1196.05983 467.292592,1104.33375 549.396722,1010.96268 C571.900528,985.183832 592.833701,954.627785 613.766875,927.277998 C734.398152,766.256772 853.513511,606.941689 972.582202,445.984846 C999.926643,408.951895 1028.90609,370.348006 1056.25053,333.315056 C1062.66244,325.267213 1065.93115,323.632536 1073.97807,331.680378 Z M1120.36122,707.2 C1120.36122,708.83395 1122,712.039106 1122,713.610311 C1117.23645,716.756111 1117.14824,718.327918 1118.69602,719.9299 L1118.78536,720.020621 L1118.7902,720.010003 C1117.15142,726.420313 1115.57556,734.464574 1112.36092,740.937952 C1076.87436,813.336299 1041.38779,885.734647 1005.83667,959.774023 C954.15105,1064.28667 900.951857,1170.50148 850.904048,1276.70181 C845.914161,1286.70084 838.949992,1290.87009 831.543518,1295.23229 L830.68705,1295.73682 C828.827492,1296.83331 826.943973,1297.95633 825.060429,1299.2 L823.421644,1299.2 C823.421644,1297.56605 821.782859,1297.56605 823.421644,1295.99484 C825.060429,1292.78969 826.636283,1289.58453 828.275068,1286.31663 C912.170014,1117.38716 997.70439,950.098708 1081.59611,781.169231 C1092.87881,758.671042 1104.16087,736.108499 1115.50779,713.610311 C1117.14658,711.97636 1118.72243,710.405155 1120.36122,707.2 Z M1039.20986,309.695809 C1050.4544,314.527845 1050.4544,317.728318 1044.04687,327.393034 C920.231805,488.04323 796.423175,648.693425 672.53092,809.343621 C638.733936,852.706322 606.570838,897.701229 571.204295,939.495984 C540.675082,978.026327 508.511983,1014.98872 476.348885,1051.95112 L459.568138,1071.64385 C400.835524,1140.56118 342.102909,1209.36484 283.370295,1276.86139 C282.409165,1277.7839 281.448035,1278.57649 280.486906,1279.36456 L279.846152,1279.89064 C277.923893,1281.47514 276.001633,1283.15299 274.079373,1285.92729 L273.764,1286.392 L272.974462,1285.8042 C266.829111,1281.29981 260.630971,1278.23269 254.490728,1275.16557 C254.490728,1275.16557 256.12397,1268.76462 257.694494,1267.13306 C273.776043,1246.23568 291.491477,1225.33831 309.142586,1206.07314 C392.753776,1104.85066 477.998852,1003.62176 561.606826,900.837763 C680.58456,754.620381 796.429607,606.83184 913.76059,459.049725 C952.330577,410.854666 989.331006,364.291814 1027.96532,316.096755 C1031.16909,312.896282 1032.80233,306.432682 1039.20986,309.695809 Z M1113.63982,764.8 L1113.63989,765.131858 L1113.63989,765.131858 L1113.64163,765.797183 C1113.65731,768.688394 1113.80887,771.715563 1115.27392,776.056994 C1116.90803,785.741724 1112.06847,795.363345 1107.22891,803.413024 C1050.91383,925.793911 992.964011,1046.54554 936.642497,1168.85237 C923.75793,1194.63711 910.872718,1220.35744 899.622574,1247.71347 C894.907805,1260.56219 885.417234,1268.57117 871.271226,1271.86069 L870.725,1271.985 L872.989371,1266.84387 C883.679602,1242.7856 895.603501,1218.77595 906.103635,1194.7102 C973.668856,1054.65865 1039.66369,914.613551 1107.22891,774.48473 C1107.94383,773.08153 1108.95952,771.67833 1110.00755,770.269873 L1110.90751,769.061213 C1111.95211,767.649321 1112.95235,766.23067 1113.63982,764.8 Z M998.615897,285.1276 C1003.45334,286.759843 1008.29078,289.961649 1013.0655,293.163455 C1014.64478,294.624772 1014.7537,296.140422 1014.76121,296.342527 L1014.76177,296.365261 L1014.76177,296.365261 L1014.75003,296.366225 C1013.11664,299.568031 1011.54598,301.200274 1008.34192,304.40208 C981.01371,338.178384 953.685498,370.321802 926.292953,404.03382 L900.674352,434.961265 L900.674352,434.961265 L875.058987,465.891943 C768.339273,594.780738 661.783265,723.833124 556.384237,854.041678 L534.418772,881.305953 C435.58294,1003.99965 336.895268,1126.78634 239.565464,1250.99682 C237.932076,1254.19863 234.728023,1255.83087 233.157358,1259.03268 C229.953306,1262.23449 228.319917,1263.86673 223.482476,1260.66492 C209.032877,1254.26131 207.399489,1252.62907 218.645035,1239.75884 C326.388186,1099.94783 434.124904,960.143246 541.945253,821.894403 C583.786753,767.276306 630.401685,715.795407 673.812885,664.378795 C776.718273,543.840975 881.251259,421.663842 984.166297,299.567067 C985.799686,296.365261 989.003738,294.733018 990.574403,291.531212 C991.108412,290.997578 991.642421,290.418603 992.169158,289.831782 L992.519159,289.439817 C995.018636,286.628299 997.315236,283.827851 998.615897,285.1276 Z M1114.00888,822.4 C1115.57174,824.030958 1115.57174,827.293035 1117.19829,833.691447 L1117.19829,833.698192 C1115.57286,840.096764 1114.00984,848.126295 1110.8214,854.587818 C1061.18141,965.369645 1011.60544,1076.21892 961.965452,1186.99432 C955.588563,1199.8541 949.149257,1214.28188 944.334741,1227.14197 C941.311217,1236.30278 933.958925,1241.06379 926.383004,1245.65034 L925.55585,1246.15021 C925.417909,1246.23347 925.279944,1246.31673 925.141978,1246.4 L920.328103,1246.4 L920.328103,1241.56976 C926.704991,1227.14165 933.144298,1212.6506 939.520866,1198.22314 C995.537103,1076.14858 1051.55334,954.14147 1107.56958,832.060489 C1107.56958,832.060489 1107.56958,830.42953 1109.19501,830.42953 C1110.82044,827.230244 1112.38345,825.599286 1114.00888,822.4 Z M966.986042,263.691131 C968.62029,265.327266 970.191781,266.900572 971.826029,266.900572 C976.666016,270.110012 978.237507,273.319452 973.460277,278.165027 C957.368824,295.911837 942.912263,313.594206 926.820811,331.341016 C806.009403,469.913055 683.695053,608.481872 561.432196,747.060355 C546.448434,763.927182 533.122553,781.878758 519.848079,799.962748 L516.66237,804.30496 C508.16539,815.888372 499.636826,827.494815 490.65555,838.874641 C392.471943,970.964004 294.35592,1103.04692 194.605005,1233.57039 C192.907839,1238.41597 191.336348,1239.98927 188.067852,1243.2 L188.045163,1243.2 C181.633685,1239.99056 178.365189,1238.35443 173.587959,1235.14498 C171.953711,1235.14498 173.587959,1230.29941 173.587959,1228.7261 C179.999437,1220.67109 184.839424,1212.61607 191.314303,1204.56106 C310.365306,1040.25486 427.842565,877.511328 546.967589,713.205126 C563.059042,690.676859 583.990803,671.29327 601.652782,650.401783 C717.498367,523.158317 833.337517,397.490413 949.260341,270.172841 C950.894589,268.536706 952.466081,266.963401 954.100328,265.327266 C957.306068,260.481691 962.146055,258.908385 966.986042,263.691131 Z M1115.57262,875.2 C1115.57262,879.971678 1115.57262,884.80604 1117.19829,889.640401 C1115.5723,894.474763 1115.5723,900.878789 1112.38338,905.713151 C1069.17731,1006.98433 1024.34492,1108.26194 981.138845,1207.89692 C979.513175,1211.09893 976.324262,1215.93329 973.135349,1217.56564 C969.946435,1219.19799 965.131852,1220.76765 961.942939,1222.4 C963.568609,1219.19799 963.568609,1214.36363 965.131852,1211.16161 C1013.15283,1101.85406 1061.17381,994.179493 1109.19479,884.868723 L1109.60089,884.068184 C1111.09229,881.132606 1112.64945,878.192639 1115.57262,875.2 Z M920.212262,232 C926.622212,236.837929 933.094903,240.042305 937.934379,244.880234 C937.934379,244.880234 936.300521,249.718163 934.729405,251.288986 C925.051739,262.535667 915.437136,272.211846 905.758827,281.824009 C838.203712,352.570556 769.014096,424.9513 701.462199,495.765403 C654.833854,544.019232 608.141159,593.907258 561.512815,642.161087 C556.673982,646.999016 551.835149,651.836945 548.630174,658.245697 C419.929251,841.578079 289.587391,1026.55109 160.886467,1209.9639 C160.886467,1211.59745 159.252609,1211.59745 159.252609,1213.16827 C154.413776,1221.21058 144.798852,1221.21058 138.325839,1213.16827 C136.691981,1211.53472 138.325839,1208.33034 139.959697,1206.75952 C146.369647,1197.08366 152.842338,1187.47086 159.251966,1177.79435 C289.587391,986.419668 419.919598,796.605188 550.197108,606.790708 C555.035941,600.381957 559.874774,593.910475 566.284723,589.071902 C617.752222,535.979823 670.854223,484.521939 722.321723,433.064056 C785.037683,370.359813 847.817993,306.021374 910.530735,243.249576 C912.164594,238.474377 917.003427,235.207271 920.208401,232 L920.212262,232 Z M886.644189,212.811359 C891.494698,214.443575 894.707406,216.075791 897.920114,219.277543 L897.920114,219.279793 C896.27554,222.481546 894.700633,224.113762 893.062832,225.683299 C876.936398,241.754741 860.809965,256.193325 846.321977,272.264767 C799.581121,317.277662 752.775759,362.290557 704.396458,407.239166 C657.655602,452.252061 610.850241,497.264956 564.109385,542.213566 C559.258877,547.047534 556.046168,551.881503 551.19566,556.652792 C410.908587,767.269041 270.627965,979.476363 128.699221,1189.96404 C127.06142,1191.59626 125.486513,1194.79801 123.848712,1196.36755 C117.423296,1204.40327 117.423296,1204.40327 109.360079,1201.20151 C102.934663,1197.99976 102.934663,1194.79801 106.147371,1189.96404 C117.423296,1172.25974 128.698576,1154.61973 141.612624,1136.91542 C277.048866,927.986677 412.552838,719.057929 547.982629,510.129182 C552.833138,503.725676 557.683647,497.259492 564.109063,490.856308 L589.101728,467.956897 C680.74139,383.985883 772.381955,299.904808 864.092984,214.443575 C865.126082,213.544577 866.055971,212.727544 866.899132,211.989229 L867.811968,211.191664 C876.494275,203.62964 875.207522,205.659568 886.644189,212.811359 Z M1117.19829,931.2 C1115.57205,936.040774 1115.57205,939.309962 1117.19829,944.087809 C1115.57173,948.928583 1115.57173,955.341104 1112.3817,960.181878 C1080.35651,1035.81113 1048.33132,1111.44038 1017.93302,1187.14044 C1014.74299,1195.18748 1009.92672,1198.39374 1003.54666,1201.6 L1000.35663,1201.6 L1000.35663,1198.39374 C1000.35663,1195.4086 1001.7663,1193.78589 1003.22278,1192.3078 L1003.54666,1191.98122 L1003.54666,1191.98122 C1038.76156,1108.30493 1073.97645,1024.63509 1110.81823,940.881548 L1111.22447,940.079947 C1112.71639,937.140475 1114.27409,934.196608 1117.19829,931.2 Z M1117.19829,987.2 L1117.19829,992.013873 C1115.59146,995.105697 1115.54277,996.669108 1117.05221,998.243118 L1117.197,998.389 L1115.55774,1004.77709 C1114.4719,1009.04682 1113.39549,1013.32575 1112.29079,1017.57679 C1091.06708,1068.77881 1069.84337,1118.41878 1050.27735,1169.6208 C1047.0269,1175.99768 1043.77644,1180.81156 1035.6185,1184 L1032.36805,1184 L1032.36805,1180.81156 C1034.02509,1175.99768 1037.27554,1171.18381 1038.86895,1164.80692 C1061.68509,1108.79071 1086.15893,1054.40057 1109.04034,998.390759 C1110.69738,996.765329 1110.69738,993.576886 1112.29079,992.013873 C1113.94784,990.388443 1115.54125,988.82543 1117.19829,987.2 Z M835.417991,179.81022 L836.253155,180.234573 C839.168995,181.715412 841.970927,183.153097 843.462919,184.643022 C845.028917,184.643022 846.594916,186.141691 848.105686,187.647653 L848.298,187.84 L847.939171,188.033286 C844.968824,189.713854 843.399908,192.731371 841.889009,194.240177 C819.388956,215.140864 795.254174,234.409086 772.689761,255.309773 C703.490514,316.379368 635.925995,375.816499 566.72353,436.889308 C560.312688,443.291268 553.839096,449.755891 548.998946,457.789994 C399.350424,695.606002 248.134751,934.980563 98.4830111,1172.79657 C96.8489254,1174.42839 95.2775902,1177.62937 93.6435045,1179.19853 C88.803998,1185.60049 82.3931563,1185.60049 77.5536497,1179.19853 C77.5536497,1178.76338 77.4374481,1178.33268 77.2980061,1177.90406 L77.1905196,1177.58295 C76.8273894,1176.51364 76.4642593,1175.45361 77.5536497,1174.36573 C79.1877354,1171.16475 80.7590706,1167.96377 82.3931563,1166.33195 C238.514627,912.512646 394.568519,657.070521 550.640111,403.186951 C553.845532,398.354149 557.050953,393.521347 561.890459,390.320367 C645.544832,321.21699 727.632054,250.545419 811.283209,181.442042 C824.167643,170.20728 819.328136,170.20728 835.417991,179.81022 Z M1115.57435,1044.8 C1115.57435,1046.44539 1117.19829,1046.44539 1117.19829,1048.02759 C1115.56294,1049.62312 1115.51338,1051.21865 1116.99261,1054.25686 L1117.13577,1054.54596 L1117.13577,1054.54596 L1117.13465,1054.54596 C1115.51071,1061.00114 1113.94914,1067.51951 1112.3252,1072.39314 C1102.70631,1099.92212 1091.52552,1125.86987 1081.96994,1153.39886 C1080.34601,1156.62645 1080.34601,1159.85404 1077.1605,1163.14482 C1073.97499,1166.37241 1070.78948,1166.37241 1065.98003,1169.6 L1065.98097,1168.79307 C1065.99131,1165.83404 1066.11536,1162.87059 1067.60396,1159.85404 C1081.96994,1124.22449 1094.77403,1088.59493 1109.20333,1052.90057 C1109.20333,1051.25518 1110.82727,1049.67298 1112.38884,1046.44539 C1112.38884,1044.91348 1113.79651,1044.80783 1115.25093,1044.80054 L1115.57435,1044.8 L1115.57435,1044.8 Z M771.253424,138.467219 C776.090563,141.67174 780.927701,144.876262 785.70212,148.143516 C788.550968,150.00661 790.295594,150.78651 791.577986,151.421698 L791.877214,151.571845 C792.653243,151.96739 793.260977,152.334413 793.868711,152.918932 L793.883024,152.914428 L793.550787,153.246714 L793.550787,153.246714 L792.916615,153.880485 C788.818482,157.972077 787.247419,159.437446 784.208747,160.957099 C755.248314,185.08511 724.71828,209.213121 694.123917,231.706862 C650.715431,267.081744 605.673016,302.456625 562.264531,337.895848 C555.856826,342.733997 551.019687,349.14304 546.182549,355.61546 C430.405144,548.63955 314.634173,743.304345 198.779575,936.328436 C153.73716,1010.34674 110.328674,1085.93497 65.2862591,1159.8825 C63.652973,1161.51613 63.652973,1163.08702 62.0824066,1164.72065 C58.8785542,1169.5588 55.6747018,1171.1297 50.8375632,1167.92517 C44.4298583,1164.72065 46.0004247,1161.51613 49.2042771,1156.67798 C70.1237193,1121.3031 91.0431614,1084.29395 111.898276,1048.91907 C234.14707,838.16893 356.328319,627.499221 480.143498,418.389789 C502.632542,378.176437 526.755515,339.597356 549.308886,299.384004 C552.512739,294.545855 555.716591,289.707706 560.55373,286.503184 C624.881657,238.247162 689.209585,188.356868 753.537513,140.100846 C763.21179,133.691803 761.578504,132.058175 771.253424,138.467219 Z M710.490461,96.4278971 C716.902409,101.265093 723.377118,104.468984 729.788744,109.30618 C729.847022,112.222831 731.206294,113.839611 732.711837,115.313069 L733.041,115.632 L732.683967,115.818418 C729.722103,117.38418 728.092761,118.95466 725.015026,122.030395 C696.035416,142.950086 667.055807,163.869777 638.140568,184.725139 C614.001622,202.441262 588.227665,220.093055 564.088719,237.809177 C559.248378,241.013068 554.408036,247.483569 551.202062,252.258045 C473.944561,387.322569 398.322071,522.454638 321.061351,655.952758 C227.711219,819.974843 134.35465,983.996928 41.0817628,1148.09942 C39.4473952,1149.73273 39.4473952,1151.30331 37.8757889,1152.93662 C36.2414213,1157.77382 33.0354475,1157.77382 28.195106,1154.56993 C23.3547646,1152.93662 23.3547646,1149.73273 24.9891321,1144.89553 C26.6234997,1141.69164 28.195106,1140.05834 29.8294736,1136.85445 C137.637225,942.227986 247.079988,746.041555 354.88452,551.495505 C420.890054,434.082774 485.260577,316.663611 551.198522,199.328074 C554.404496,192.920293 559.244837,188.083097 565.656785,183.245901 C607.523373,154.285124 650.960602,125.324346 692.762819,96.4278971 C699.174767,91.590701 704.015108,91.590701 710.490461,96.4278971 Z M1115.57546,1100.8 C1115.57546,1102.42456 1117.19829,1103.98673 1117.19829,1105.61128 C1115.68738,1107.06572 1115.58318,1108.57423 1115.57599,1111.34722 L1115.57546,1111.9857 C1117.19829,1124.795 1109.20879,1135.97974 1105.96313,1147.16416 C1105.96313,1148.78872 1102.7798,1150.35089 1101.15697,1151.97544 C1099.53414,1153.6 1096.35081,1153.6 1094.7903,1153.6 C1094.7903,1151.97544 1094.7903,1148.78872 1096.41313,1147.22654 C1101.21929,1132.85507 1106.02545,1120.0461 1112.39213,1105.61128 C1112.39213,1103.98673 1115.57546,1102.42456 1115.57546,1100.8 Z M636.433304,51.044244 C644.489558,55.8788163 652.545811,60.7133887 660.602065,65.4852745 C665.448385,68.6874272 665.448385,71.88958 660.602065,75.1544191 C638.070335,89.5954496 617.111186,102.466426 594.515006,116.971107 C588.095138,120.17326 583.248818,125.007832 576.765468,128.209985 C563.967738,133.871762 556.188013,144.58762 548.989641,155.889904 L548.283323,157.003337 L548.283323,157.003337 L547.579816,158.119609 C547.111541,158.864525 546.644514,159.610704 546.177484,160.356885 C446.29283,345.201561 344.771146,530.046236 244.889714,714.890912 C169.173821,853.1483 93.4579277,992.977672 19.3146151,1131.16112 C19.3146151,1132.79354 17.6782288,1132.79354 17.6782288,1134.36327 C16.0418426,1137.56543 12.831909,1139.19785 9.6219753,1142.4 C6.61186475,1139.39719 4.98365783,1136.27937 3.41482864,1133.21155 L3.202,1132.796 L3.60991199,1131.59201 C5.11114915,1127.16072 6.67856936,1122.73381 9.62100855,1118.35958 C67.6518141,1009.04726 125.681008,898.169391 183.716648,788.853857 C249.740868,665.10115 315.826316,539.715381 383.479511,414.326397 C439.873285,308.215909 496.26706,202.17293 552.660835,97.6955041 C555.870769,92.8609317 559.080702,88.0263594 563.927022,84.8242067 C583.249141,73.5853289 602.571259,62.3470941 620.320797,51.044244 C626.740664,47.8420913 630.013437,46.2096717 636.433304,51.044244 Z M559.612289,2.88903979 C566.03827,7.73110947 572.52715,10.938228 577.378731,14.1453466 C583.804712,18.9874163 585.442657,20.5595837 575.740786,23.829486 C557.037865,31.6133164 547.347951,46.9243674 538.013508,63.9626756 L537.377517,65.1269869 C537.271577,65.3214622 537.165657,65.5161435 537.059745,65.7110223 C464.484409,205.754019 391.909073,344.229034 320.978778,482.626777 C266.169884,587.266224 211.296479,693.547706 156.49081,798.187153 C106.468663,894.777412 56.5110274,991.367671 6.48888016,1087.95793 C6.48888016,1089.39669 5.22045579,1090.78682 4.91603394,1091.09974 L4.85093546,1091.16505 L4.85093546,1091.16505 C4.85093546,1092.8 3.21299077,1092.8 1.6379447,1092.8 C1.6379447,1091.16505 0,1091.16505 0,1089.59288 C3.2103716,1089.59288 3.27457904,1086.51276 1.73424274,1083.37105 L1.6379447,1083.17864 L1.62955821,1083.19249 C3.26750291,1076.77825 4.84254898,1068.72906 8.05553975,1062.25172 C90.3333919,901.267956 172.543507,738.642156 253.182769,577.658391 C301.566327,482.703727 349.949884,386.119908 398.333441,291.091191 C445.078409,197.707729 493.461966,105.959861 540.271445,12.5731792 C541.90939,9.36606059 543.484436,6.15894202 545.122381,4.5239909 C549.973316,-0.318078782 553.186307,-1.89024623 559.612289,2.88903979 Z M504.179743,36.8 C494.520243,56.0818087 486.490891,73.7913638 476.894978,93.0699573 C396.607887,255.471851 316.320796,417.793364 234.395849,580.195258 C160.506033,729.71689 85.0490133,880.804346 11.2298503,1030.32919 C9.59905894,1033.5319 6.40010008,1036.7346 4.83193262,1040 C4.83193262,1036.7973 3.20114123,1031.96189 3.20114123,1028.75919 C3.63601893,1027.05108 3.95492925,1025.33852 4.24945855,1023.62387 L4.46721513,1022.33754 C5.18737249,1018.04872 5.89825224,1013.75065 8.03089147,1009.4806 C70.6291306,880.870901 133.291599,752.261205 195.886627,623.651509 C256.917662,496.675156 319.515901,369.631283 380.546936,244.220753 C409.463135,184.75163 438.379334,126.851545 465.664099,67.3824212 C468.863058,60.9770152 473.692808,54.5089121 480.090726,51.3062091 C489.687602,44.838106 496.148144,40.0654002 504.179743,36.8 Z M436.955777,76.8 L436.955777,81.64651 C430.531708,96.1231989 422.470181,112.235694 415.98291,126.776191 C328.944218,308.870778 243.482361,490.965365 156.369504,673.043839 C108.000343,772.932412 59.6311832,874.45808 12.9001252,974.34343 C11.2626679,975.979881 11.2626679,977.55349 9.68809053,980.76355 C9.68809053,982.4 8.05063323,982.4 6.47605583,982.4 C6.47605583,980.76355 4.83859853,980.76355 4.83859853,979.18994 L4.83806142,978.851704 C4.83107894,977.385066 4.73332431,975.874741 3.36475939,973.096128 L3.203,972.773 L3.39018265,972.032915 C4.96472183,965.74325 6.53929541,958.054732 9.62779031,951.820807 C93.5176495,769.726219 178.984343,587.631632 264.452649,405.553158 C311.183707,305.664585 357.979258,205.782457 404.710316,105.816541 C411.134385,91.3398524 424.045081,86.4936646 435.31832,76.8 L436.955777,76.8 Z M376.119407,115.2 L379.335235,116.834641 C377.695844,120.04115 376.119407,123.247659 376.119407,126.51694 C352.119338,179.329705 327.805355,232.142469 303.446456,284.955233 L282.562674,330.223317 C258.200067,383.036081 233.869401,435.848846 209.83967,488.66161 C145.271284,630.31329 79.062861,771.971409 14.488018,913.545831 C12.8486266,915.180472 12.8486266,916.752341 11.2721895,919.95885 C9.63279817,921.593491 8.05636103,923.165359 6.4169697,924.8 L6.4169697,918.386981 C4.90359004,918.32672 4.84305485,916.875676 3.39020492,915.313463 L3.207,915.123 L3.39625323,914.377425 C4.97035608,908.094715 6.54678941,900.414701 9.63893217,894.18767 C72.5672813,752.535989 137.135668,610.877871 200.131814,469.303448 C250.19814,358.271502 300.199898,248.813678 350.266225,137.707694 C353.678001,128.650692 360.265672,124.374725 367.250747,120.407747 L368.058322,119.951136 L368.058322,119.951136 L368.868477,119.495741 C369.138853,119.343975 369.4095,119.192158 369.680262,119.040034 L370.492728,118.582491 C372.388541,117.511558 374.282175,116.413152 376.119407,115.2 Z M321.714693,153.6 C321.714693,155.231907 321.714693,156.801146 320.081023,158.433053 C316.876417,166.467252 313.671812,174.501451 310.404472,180.903101 C212.318314,407.547859 112.597842,634.144412 12.8821969,859.101988 C12.8821969,859.101988 12.8821969,860.733894 11.2485268,860.733894 C9.6148567,863.935041 8.04392107,867.136187 4.83931534,870.4 C4.83931534,867.136026 4.83931534,863.872213 3.20564524,859.101827 L3.202,859.109 L3.34529085,858.667658 C4.83775403,853.890179 4.93192059,847.680035 8.03941706,841.41036 C102.919682,621.289372 199.427827,401.168383 294.382086,180.967053 C299.220362,169.731708 307.263244,161.69783 316.876417,155.231907 C318.510088,153.6 320.081023,153.6 321.714693,153.6 Z M273.697575,184 L273.697575,188.836108 C268.856089,200.078556 264.014602,211.320361 259.235892,222.626802 C177.118311,415.569479 95.0683344,610.152169 11.38296,803.094845 L11.3822159,803.122346 C11.3732869,803.336404 11.2572097,804.727784 9.74820589,804.727784 C8.11345178,807.930954 6.54147377,811.134124 3.33474165,814.4 C4.84378259,812.641328 4.84378259,807.805219 3.20902848,803.031978 L3.20114123,803.024421 C4.83589534,798.188313 6.40787335,790.149035 8.04262746,783.743017 C83.6830028,603.679263 157.752366,425.17513 233.392741,245.111377 C239.806205,230.665759 246.282446,217.790694 251.124576,203.281405 C253.541244,194.808835 259.636078,190.902157 265.937561,187.421618 L266.665375,187.021673 C267.029542,186.82241 267.393954,186.624036 267.757942,186.425755 L268.485156,186.029083 C269.695581,185.367386 270.896366,184.700839 272.062821,184 L273.697575,184 Z M232.082739,212.8 C228.871923,219.212536 227.235087,227.259591 224.024271,233.735216 C153.072685,405.926079 82.1823435,576.555814 12.8601797,748.746678 C11.2233437,753.587464 8.01252777,756.793732 6.43854783,760 C6.43854783,755.159214 4.80171184,750.318428 4.80171184,747.11216 C6.43854783,740.699624 8.01252777,732.652569 9.64936376,726.176944 C49.941703,627.977134 88.5965615,529.844918 128.888901,430.077542 C154.701785,365.701109 182.087682,301.324676 207.836099,235.306645 C212.68375,224.11625 219.168238,217.640142 232.074358,212.8 L232.082739,212.8 Z M188.867332,238.4 L188.867332,241.609569 C188.867332,244.597788 187.446372,246.222171 185.978217,247.701789 L185.651742,248.028706 L185.651742,248.028706 C127.518664,396.234025 67.8102337,544.4329 9.74817585,691.072262 L9.74817585,692.708462 C8.1089057,695.918031 6.53258507,699.1276 4.89331492,702.4 C3.25404476,700.826793 3.25404476,697.617063 1.61477461,692.771294 L1.60057061,692.779027 C3.23984077,687.933258 3.23984077,681.514121 6.45543155,675.031508 C61.3086778,534.881526 116.226488,394.737988 169.510838,254.510675 C172.726429,246.455337 179.22056,243.245769 185.651742,238.4 L188.867332,238.4 Z M153.654779,260.8 C152.011895,265.631658 152.011895,268.831881 150.432099,273.663539 C103.546164,394.141753 56.595524,514.619966 9.70958963,636.736683 L9.70958963,638.368119 C8.06670545,641.568342 6.48690958,644.768564 4.8440254,646.4 C4.8440254,641.734951 4.8440254,638.590764 3.36530166,635.499021 L3.20114123,635.168539 C4.84434893,628.768094 4.84434893,623.936435 8.06702898,617.472699 C50.1517816,505.026366 93.8153595,392.580034 135.835406,278.495197 C137.47829,275.294975 139.058086,270.463317 140.70097,268.831881 C143.92365,265.631658 148.789215,264.000223 153.654779,260.8 Z M120.042796,284.8 L120.042046,285.567054 C120.033043,288.739374 119.916004,293.089569 118.394501,296.047731 C82.702,392.564396 47.0094989,487.440279 9.66805372,583.956945 C8.0197587,587.16162 6.43475977,588.795325 4.78646475,592 L4.79816859,591.336428 C4.84045474,588.456305 4.74385059,585.485617 3.36588837,581.247031 L3.202,580.755 L3.44817199,579.982795 C4.85382682,575.25065 4.93285724,569.256965 6.43443518,564.673236 L103.81303,299.252406 C105.461325,296.047731 107.046324,292.843055 108.694619,291.20935 C111.927913,288.004675 115.161207,288.004675 120.042796,284.8 Z M88.0311798,307.490299 L88.0313837,307.869428 L88.0313837,307.869428 C88.0313837,311.092955 86.4065603,312.736272 84.8441317,315.959799 C59.2206861,387.129176 33.661235,458.363276 8.03778939,529.529418 C8.03778939,531.172734 6.412966,534.396261 6.412966,535.976473 C6.412966,537.619789 4.78814261,537.619789 3.22571398,539.2 L3.2254948,535.253206 C3.22154968,531.063763 3.14659238,529.528395 1.72240363,528.012442 L1.60057061,527.886101 L1.60057061,527.886101 L1.60057061,527.885778 C3.225394,521.438723 3.225394,514.928563 6.41264603,508.481831 C28.785165,445.402825 51.2216786,382.259096 72.0327289,319.183327 C73.6575523,312.736272 78.4072329,306.226112 84.8441317,304.6459 C87.9038937,303.068317 88.0262841,304.519694 88.0311798,307.490299 Z M60.8216833,324.8 L60.8216833,328.020212 C59.4051164,333.043438 57.6675943,337.75491 55.8944105,342.431713 L54.5622938,345.937145 C52.7891101,350.613933 51.051588,355.325324 49.635021,360.348407 C36.8235233,399.11638 22.4499054,436.306736 9.63808769,475.139365 C9.63808769,476.780991 8.01325227,480.001203 8.01325227,481.579788 C8.01325227,483.221414 6.38841685,483.221414 4.82597665,484.8 C4.82597665,483.158374 3.20114123,483.158374 3.20114123,481.579788 C4.8429267,476.910688 4.88729928,473.736151 3.39187798,472.05573 L3.26369643,471.919154 L3.26369643,471.919154 L3.26353644,471.91883 C4.88837186,465.478407 4.88837186,460.61657 6.45081207,454.11246 C19.2623098,415.344488 33.6359277,376.511859 46.4477454,337.743886 C48.0725808,331.303463 51.2598564,326.441626 57.6344077,324.8 L60.8216833,324.8 Z M33.6119829,339.2 L33.6110433,339.996796 C33.6007083,342.918645 33.4766879,345.844864 31.9884429,348.823507 C24.6615179,370.820187 17.334593,391.451117 10.007668,412.017524 L8.00941575,417.625922 L8.00941575,417.625922 C8.00941575,419.250637 4.82468122,422.437676 4.82468122,424 C4.82468122,422.375285 3.20114123,419.188246 3.20114123,417.625922 C4.832798,416.053618 4.88543209,416.002898 3.41569295,414.52876 L3.26364656,414.376493 L3.26364656,414.376493 C4.88702669,408.002415 4.88702669,403.190661 6.44822122,396.753553 C11.2564957,382.380682 16.0647703,367.945101 20.8106993,353.572871 C20.8106993,351.948156 22.4342393,348.761117 23.9954338,347.198793 C27.1801684,344.011754 30.3649029,342.387039 33.6119829,339.2 Z M9.45302162,355.387456 C9.45302162,357.174912 11.2411151,357.174912 9.45302162,358.893728 C9.45302162,362.4 7.66492815,364.187456 7.66492815,365.906272 C7.66492815,367.693728 5.87683468,367.693728 4.1574057,369.412544 L4.1574057,364.187632 C4.1574057,363.383101 4.51949462,362.230685 4.91779244,361.049719 L5.18511242,360.261684 C5.58341024,359.083806 5.94549916,357.948379 5.94549916,357.174912 C5.94549916,355.50662 9.00094094,355.3954 9.40833318,355.387986 L9.45302162,355.387456 L9.45302162,355.387456 Z" id="Combined-Shape" opacity="0.400000006"></path>
                </g>
            </g>
        </g>
    </g>
</svg>