<svg xmlns="http://www.w3.org/2000/svg" height="166" viewBox="0 0 2925 166" width="2925"><path d="m1622.7311 147.120708c-.8972.134134-1.7956.271248-2.69161.411344-.00537 1.220913-.00835 2.444808-.01133 3.661549-.00834 3.084477-.01669 6.017531-.05484 8.676357.16573-.045903.31953-.126979.46738-.245017 1.6856-1.346662 2.17748-6.42529 2.27873-11.758728zm-43.26676 9.297967c-.00019.018648-.00092.037683-.00217.056723-.00162.023292-.0039.046019-.00693.0686l-.00621.041225c-.00413.02264-.00866.044298-.01386.065765-.00444.019273-.00973.038711-.01561.058059-.00617.019452-.0127.038859-.01979.058049-.00631.017786-.01339.03548-.021.053057-.00809.018049-.01635.035746-.0251.053201-.00533.011238-.0112.022462-.01729.033623l-.01666.030383-.03262.058108c-.01629.02819-.03273.055103-.05023.080835l-.0367.049916c-.09406.117782-.22767.209061-.50537.284732l.08555-.025862c-.04416.016198-.08873.029176-.13344.039086-.77749.194747-2.60157.285453-7.40087.47241-2.46031.096576-5.41065.184806-7.16214.184806-.61523 0-1.08201-.011327-1.32822-.036365-.49521-.05114-.76863-.263749-.91892-.495173-.37663-.509651-.68088-1.493075-.95279-3.044795l-.07339-.437358c-.10846-.674248-.21217-1.44415-.31382-2.316088-3.85767-.303649-8.01515-.7302-12.86283-1.297952-3.02426-.354112-5.94361-.803609-8.41345-2.388174-4.4995-2.88821-5.75614-8.041914-5.74789-13.245715l-6.96124-.426195c-5.98832-.367228-12.77548-.782744-18.61059-3.774222-3.92386-2.0126-6.3633-6.258972-6.21367-10.818322.07631-2.317829-.14188-4.391832-.47274-7.532943-.08346-.794667-.17408-1.659084-.26946-2.615307-.13056-1.30676-.42625-6.475374-.54727-8.637012-2.70771-.091211-10.60132-.248594-14.6766.824475.02862 2.0281.12877 3.862451.21879 5.502458.1383 2.522904.2468 4.515235.03279 6.036012-.06916.489439-.47096.863224-.96398.895416-7.02264.467978-13.63334-.379747-20.63213-1.278144-1.77772-.228325-3.5763-.459631-5.40946-.672456v.004769c-.01073.721937-.09658 1.362797-.17229 1.927947-.13592 1.015838-.19434 1.561911.07869 1.905293.86383 1.085588 5.30335 1.502893 6.76213 1.639411.52819.04948.93476.487054.94549 1.017031.02563 1.236414.58721 2.677306 1.1297 4.069911 1.02657 2.635577 2.19085 5.623477-.03517 8.03669-.18302.198517-.43579.317747-.70465.333843-3.2502.193749-6.61487.447708-9.86925.693918-3.26273.246806-6.63634.501362-9.90264.696303l-.07504.000353-.06207-.002499c-.3045-.021193-.5952-.176336-.78053-.442804l-.02562-.039726-.01076-.016269c-1.68471-2.778652-2.14673-3.728914-1.61437-7.081062.76315-4.806129 1.19592-9.666213 1.40951-14.543982-.01936-.119246-.01653-.242405.00831-.363745l.00921-.048108c.3957-9.588181-.04303-19.2407222-.472-28.6822967-.11327-2.4877313-.22594-4.9760586-.3249-7.4620014-.03219-.8155323.08644-1.8450822.22475-3.0367848.27423-2.3744628.6498-5.6264575-.48109-6.7048917-.05544-.0536534-.15381-.1472488-.32848-.2319021-.09121.0774995-.19733.1400951-.31358.1830179-4.07945 1.5076617-12.04221 3.2680907-16.01078.3040362-.6504-.4858618-1.15534-1.0790304-1.50826-1.7657944-.80062.2301136-1.58933.5037462-2.36254.8208976l.84236 52.2906434c.00596.380344.01491.761283.031 1.140434l3.51132.204479c2.03228.118038 3.80165 1.43672 4.40316 3.281802.55561 1.703795.00894 3.268091-1.46295 4.18318-1.86893 1.161895-4.62671.897801-6.14868-.587803-1.40692-1.373528-1.98876-3.178668-2.23616-5.103634l-11.23384-.65338.09896 6.635142c.00596.371401-.18659.717764-.50494.909128-.31774.191364-.71359.200902-1.03968.020865-.2784-.152018-.66709-.277209-1.20541.109095-1.00511.721937-1.67161 2.558673-1.42659 3.930413.12102.677226.31179 1.37174.51388 2.107388.57648 2.096657 1.22926 4.474101.0626 6.622027-.13294.245613-.35948.427439-.62715.504938-.26887.0775-.55681.042923-.80003-.092403-.55681-.312978-1.18515-.302247-1.86834.031-1.11897.547265-2.06804 1.855217-2.25702 3.109515-.23965 1.588738.12221 3.219206.50494 4.944463.19792.891839.4024 1.814082.52402 2.74944.4012 3.087458-.59019 6.889698-3.71461 7.941306-.1085.036365-.22058.054846-.33265.054846-.19077 0-.37975-.052461-.54607-.154403-.2635-.162153-.44175-.432804-.48646-.738629-3.05467-20.999361-3.69613-42.36893-1.9053-63.5137513.73208-8.6388002.48765-14.6724277-.72491-17.9339608-1.0373-2.7887867-3.5149-4.0532194-7.38451-3.7706446 1.91126 3.8392018 1.88384 8.3681483 1.86178 12.0732165l-.31179 52.0289342c-.00298.534746-.41074.980666-.9437 1.031934-.53236.047692-1.01822-.309401-1.12255-.834609-4.25472-21.389838-5.46192-43.2524231-3.58822-64.9796821.02682-.3123823.19136-.5878033.43638-.7618789-.86978-.7058408-1.9512-1.1893179-3.13813-1.3824703-1.71989-.2807864-3.4213.0804801-4.75191.9925886.39942 9.1657962.2325 18.1712282.07154 26.8857394-.16394 8.8575873-.33325 18.0156333.09419 27.3054283.23906 5.185903.2015 10.57092-3.02903 14.429199-.19852.236671-.49183.373189-.80004.373189h-.00357c-.31-.000596-.60331-.139499-.80063-.377958-1.45818-1.764006-2.27789-3.514897-3.07017-5.207961-.77082-1.647161-1.49872-3.20311-2.78819-4.762637-.86919-1.051608-1.66982-1.944639-2.65525-2.218272-1.02299-.285555-2.18727.109096-3.42011.524612-.28675.096576-.57171.193152-.85488.280786-4.68394 1.451027-10.08983.317151-14.459-3.037381-4.36859-3.353936-6.86168-8.281707-6.66853-13.182054l.02265-.508516c.1085-2.218868.00656-3.31459-1.39379-3.774817-.26768-.087634-.58542-.137711-.99975-.156191-6.25897-.280787-12.58352-.063788-18.81268.647418-.02385 1.134472-.02325 2.268348.00119 3.401628.52938.117441 1.05876.315363 1.54284.647418 1.44029.988416 1.89992 2.73096 2.13898 4.138469.8054 4.735214.41313 9.643312-1.13328 14.191931-.14844.435785-.54965.736841-1.02538.706437-.46022-.016692-.85547-.332651-.97172-.777975-1.45759-5.567438-2.31902-11.261261-2.57537-16.995621-.05067 0-.10194-.000597-.15261-.000597l-12.34864-.043519c-.7744-.003576-1.44387.019673-1.84866.322517-.47871.355901-.65636 1.167857-.77738 1.991139-.7577 5.170403-.5872 10.404595.4811 15.468287 1.88383.922243 3.36943 2.869267 3.76945 4.998116.33384 1.778314-.16752 3.429051-1.37591 4.528947-.24979.227729-.59198.319536-.92284.248594-.32967-.071538-.6045-.297478-.73804-.60688-1.06531-2.472231-1.90767-5.02077-2.5229-7.617-2.38042-.673649-5.0774-.028615-7.87156.846532l-.03576.411343c-.57887 6.645277-.99736 11.44726-5.49114 16.85493-.04232.051269-.09001.098365-.14188.140692-7.44471 6.09205-12.77369 2.80369-18.02219-1.420624-.25515-.205672-.50852-.418497-.76188-.631322-.98842-.830436-1.92199-1.613777-3.00221-1.980408-.83878-.28496-2.10202-.349344-3.43859-.417901-2.55807-.129961-5.20319-.26469-6.56658-1.957158-2.26716-2.813229-2.39354-6.341837-.45904-8.671589-.43221-.370209-.8817-.708225-1.34908-1.020011-6.31561.958608-12.73435 1.39797-19.11971 1.300201-1.53985-.023846-2.83409-1.201837-3.01174-2.739902-.09598-.834013.14248-1.652526.67126-2.304117.52819-.650399 1.27755-1.050415 2.11037-1.126722 6.03303-.554419 12.60916-.677822 17.98881 1.741948-1.96253-2.215291-3.28121-5.137019-3.69255-8.342514-.3565-2.778652.00059-5.522131.97411-7.923421-6.96303 1.642391-14.07092 2.423347-21.21815 2.346444 1.25012 5.685476 1.36518 11.629681.28555 17.340196-.04173.221171-.1538.42267-.31953.574688-1.1768 1.080819-2.41739.746975-3.23769.525804-.7732-.206864-.98424-.227133-1.28589.048288-.75652.69511-1.86535 2.136599-3.03858 3.663337-1.81646 2.363136-3.77183 4.906906-5.70276 6.52247l.30901.031491.6497.064525c7.15223.69802 21.34558 1.68204 36.2118.442903.90138-.074518 1.27456.381536 1.41824.66113.11446.220575.31774.808378-.25337 1.482623-1.13864 1.347298-8.69483 5.184115-23.55147 5.185307-9.96404 0-23.21108-1.725256-40.01593-7.084042-7.12876-1.134472-13.46821-1.715122-18.8574 2.506808-.06787.053175-.14023.096609-.2154.130512-2.98136 2.192532-8.49299 4.331618-15.69532 6.315641l-1.42452.384591c-.48182.127524-.97054.254367-1.46593.380499l-1.50597.376241-1.54463.371815c-.26058.061592-.52271.122991-.78637.184196l-1.60003.364864c-.26964.060412-.54075.120622-.8133.180627l-1.65232.357537c-.27818.05917-.55775.118128-.83867.176869l-1.70151.349835c-.28622.057865-.57372.115508-.8625.172924l-1.7476.341757-1.77661.336163c-.29844.055552-.59804.110864-.89875.165932l-1.81753.327459-1.84309.321448-1.86726.31527-1.89007.308924-1.91149.302413c-.32028.04985-.64141.099422-.96334.148712l-1.94103.292331-.97734.143578-1.96748.281875-1.98338.274695-1.99791.267348-2.01106.259835-2.02282.252154-2.03322.244307-2.04223.236292-2.04986.228112-2.05611.219763c-.34313.035922-.68647.071489-1.02997.106698l-2.06291.206928-2.06572.198162-1.03348.095742-2.06735.184701-2.0667.175518-2.06468.166168-2.01895.151751-1.52357.100865-1.04371.062276-1.60769.085988-1.65841.07711-1.70928.068267-1.76033.059459-1.81157.050685-1.86297.041949-1.91454.033245-1.96629.024579-2.01821.015947-2.77203.007895-2.86505-.007303-2.95849-.02242-2.28044-.026684-3.12301-.048672-2.40429-.046277-3.28878-.074668-3.38407-.089408-2.60084-.076679-4.45484-.146022-3.67243-.133127-4.7269-.186657-3.89113-.165423-5.00158-.226763-4.11191-.197296-6.35323-.322224-4.0505-.214506-4.83345-.263634-10.123787-.580645-8.855281-.538648-9.448798-.602261-12.107054-.804039-11.591853-.794095-42.630371-3.021637-16.432048-1.179467-17.482467-1.240115-9.361364-.654938-15.347598-1.054943-8.209836-.552034-7.825014-.516058-7.458281-.48085-5.363923-.337995-6.860023-.421088-6.543033-.387996-6.244131-.355674-4.497825-.246006-2.914565-.154305-4.251521-.217146-4.113913-.200264-3.983936-.183705-3.86159-.167471-3.746876-.151562-3.639791-.135977-2.370806-.082153-3.478277-.110723-3.391542-.096004-2.216612-.055986-3.263943-.072193-3.197559-.058339c-.351879-.005724-.70267-.011198-1.05242-.016424l-3.120917-.040372-2.053152-.019619-3.044191-.018725-2.009067-.005488-3.814027.005081-2.158561.011887-3.690755.034227-4.587802.064871-3.960527.073902-4.089895.091951-5.084574.134179-4.389342.131692-3.614129.11837-3.707714.129946-5.741769.216633-4.954623.200444-6.155633.264445-7.480442.341511-7.813318.377065-11.769648.600744-12.588415.677117-18.768331 1.058006-75.829629 4.465239-17.524628 1.006116-15.119741.844931-15.618388.843989-9.983828.520982-12.084164.608042-11.734142.563894-10.340768.473156-6.81406.2989-6.8423.289527-4.55865.186926-6.636642.26304-6.561196.248683-4.332828.157773-6.438203.224575-4.251977.141625-4.220278.135122-6.271783.190441-4.142634.118762-6.157033.165786-6.089833.150885-6.023869.135901-3.979876.082237-5.916677.110747-3.90956.065392-3.882074.05861-5.772378.075151-5.712598.059757-3.775797.031247-5.61571.033923-3.71235.013947-3.687614.006986-332.639332.000874c-.57989899 0-1.05-.470101-1.05-1.05 0-.541239.40951022-.986832.93559093-1.043839l.11440907-.006161 332.637609-.000874 5.642546-.013485 3.794028-.018013 3.820343-.025201 3.847046-.032364 5.821484-.061919 5.883743-.077891 3.957728-.060759 5.990411-.104319 6.056154-.120062 4.074606-.088744 6.168629-.146105 4.150799-.106027 4.181954-.112895 6.332193-.182165 4.261534-.129955 6.453379-.207634 6.527833-.2228 6.603592-.23788 6.68066-.252873 7.897751-.314025 5.69913-.235935 6.864271-.294057 11.557503-.518988 10.597698-.501006 9.636869-.474921 9.893844-.505034 12.806234-.676964 16.142495-.884964 17.150238-.971126 81.849292-4.813165 18.311004-1.04009 16.1348-.873172 8.323067-.4286 5.726123-.284134 6.641966-.316986 5.348787-.244187 6.201456-.269075 6.944957-.28092 4.775521-.178911 5.533653-.190786 4.452201-.139078 4.312009-.120985 4.995318-.121314 4.018489-.081215 3.123403-.051966 3.793576-.048707 2.948958-.025972 2.163032-.011901 3.822288-.005088 2.995284.010158 3.032571.022571 3.077279.035302 2.080021.030761 3.168282.057218 3.232778.070788 2.194681.054886 3.356761.094106 3.441045.108517 2.344519.080507 3.598009.133236 3.702082.148488 2.529536.107622 3.892026.174609 2.663037.125327 4.102582.201607 4.238811.218224 4.382459.235159 6.079559.340431 6.365716.371844 6.669463.404005 5.212012.324558 7.243345.462083 5.662624.368975 11.94913.796952 15.058702 1.032037 13.933672.975141 20.159501 1.434766 41.786646 2.984647 14.31548.998786 16.243164 1.100364 10.165238.660896 7.877637.491936 8.980422.534832 7.277452.411278 5.91001.319473 5.36006.278504 6.22685.305747 4.02818.186279 4.89749.212961 4.74515.190715 4.59356.168312 4.44272.145749 4.29264.123029 3.32657.081958 3.23138.067235 2.36131.040716 3.06575.041274 2.23752.021152 2.18475.012711 2.13213.004235 2.07967-.004274 2.6916-.018995 2.59902-.034266 1.26491-.022884 1.85427-.041544 1.80268-.050236 1.75127-.058963 1.13902-.044173 1.11629-.048076 1.09361-.05199 1.07097-.055914 1.04839-.059848 1.53032-.09717 1.47978-.106078 2.03274-.159097 2.0363-.168543 2.03844-.177803c.33984-.030395.67971-.061169 1.01958-.092316l2.03901-.191348 2.03762-.200147 2.03482-.208762 2.0306-.217193c.33801-.036891.67578-.074125 1.01328-.1117l2.02164-.229492 2.0139-.237462 2.00474-.245246 1.99417-.252847 1.98219-.260263 1.96879-.267495 1.95399-.274542 1.93778-.281405 1.92014-.288082 1.90109-.294577c.31519-.049627.62952-.099517.94297-.149666l1.86988-.303972 1.84731-.310005 1.82332-.315852c.30181-.05312.60257-.106475.90223-.160062l1.78469-.32428 1.75718-.329667 1.72824-.334869 1.6979-.339888 1.66615-.344722c.54993-.115693 1.09434-.23216 1.63298-.349371l1.5984-.353837 1.5624-.358117 1.525-.362213 1.48618-.366125 1.44595-.369852 1.40431-.373395c7.37609-2.000561 12.91515-4.144414 15.65295-6.305651.08128-.064162.1691-.11439.26058-.151021 5.98197-4.438502 12.95984-3.779431 20.18089-2.628292.05186.008942.10254.020269.15261.036961 32.93427 10.51667 51.94726 6.785968 58.68375 4.088392-18.51163 1.15653-35.21573-.859051-37.80898-1.194683-.14129-.009539-.28198-.029212-.42208-.059019-.54845-.11923-.90495-.650399-.80659-1.203029.09777-.552631.6194-.92284 1.17203-.850706.01252.001789.10552.014904.27364.036962.00954 0 .01907.000596.02921.000596 1.92318 0 5.45536-4.595119 7.59971-7.385098 1.28351-1.669815 2.39175-3.1119 3.2818-3.928624 1.1762-1.080223 2.41679-.747572 3.23769-.5264.55859.149633.82447.202094 1.04207.115653.97589-5.476228.80301-11.166474-.46142-16.592029-.77678-.028019-1.55357-.066769-2.33095-.114461-.36901-.023249-.69868-.239652-.8662-.570514-1.27099-2.510385-.94669-5.675938.80659-7.876922.22594-.283767.58363-.428631.94549-.385112.21581.026826.41373.119826.56992.260517.42506-2.115138 1.81826-4.396005 2.88775-6.146896l.21819-.357093c2.34406-5.3122872 2.43348-10.4260563 2.21052-14.7302545l-2.76196-53.2868093c-.01669-.3147668.11029-.6199953.34517-.830436.23429-.2104407.55204-.3040362.86323-.2533635 3.01055.4864579 4.62254 3.3283018 4.79125 8.4462439.14963 4.5390811.33146 9.2105074.50792 13.7281272.02325.6038992.04709 1.2107793.07034 1.8194478.16335.060211.31179.1609603.42983.2974785.21401.2485943.40955.5120923.58601.7887056l1.30318-3.9041821c.13712-.4101507.51269-.6939178.9455-.7123985.42922-.0125191.83103.2324983 1.00212.6295337l1.03671 2.4060588 1.26264-2.5145579c.21283-.4238622.68557-.6509951 1.14938-.5520343.4644.0989608.80301.4983808.82507.9723196l.12817 2.7875943 2.87702-2.4746159c.38749-.3338437.9598-.3362283 1.35147-.00775.39107.3290745.48646.8936279.22475 1.33299-2.35539 3.9512778-3.63115 8.6125696-3.63055 13.2202078l3.58166.3493436c.43996.0435189.8054.359478.91092.7881094 1.11539-.7809556 2.35956-1.4999118 3.72951-2.1544837.31357-.1496335.68199-.1329413.98126.044115.29927.1770564.49063.4918232.50971.8393783.27661 4.9438665-1.53986 8.3687445-3.46303 11.9957171-.7434 1.4027394-1.51303 2.8531708-2.21768 4.4782739-2.52588 5.8219945-4.73283 11.9331215-1.63643 17.0373522.02862.047096.05365.096576.07452.147845 1.61378 3.962605 3.15482 6.220818 7.09954 7.571097.3404.116249.59734.400612.67842.751744.08108.350536-.02444.718956-.27959.972916-.16752.168114-.32967.341593-.48587.520438.14368.23071.19435.512092.13175.784533-.08525.374381-.36901.671264-.73922.773205-.20627.056635-.41254.113269-.6194.168711-1.35982 2.364328-1.92676 5.312286-1.54105 8.322244.52163 4.062758 2.69579 7.578847 5.81663 9.40366.37796.221172.57767.655168.49958 1.086184-.05843.326094-.26708.598534-.55263.743995.2778.240844.54905.493611.81434.757109.20984.209845.32072.497785.30463.794071-.0155.29569-.15619.571111-.3869.75711-2.14018 1.725256-1.65909 4.614792-.0781 6.577316.77678.964569 3.04632 1.080222 5.0476 1.182164 1.4862.075711 2.88894.147249 4.00254.525207 1.45163.49242 2.58133 1.44149 3.67348 2.358963.24263.203287.48407.406574.72909.603304 5.82795 4.691099 9.61648 6.115896 15.31507 1.495142 4.01626-4.874117 4.38945-9.158642 4.95281-15.626267l.09717-1.105857c.03697-.417304.32014-.772013.71896-.900185 2.98194-.960993 5.89949-1.766391 8.69663-1.311529-.91688-4.952808-1.02001-10.045712-.28198-15.08079.186-1.267413.50792-2.552115 1.5941-3.361686.99676-.743398 2.26477-.733263 3.10356-.736244l12.34863.043519.07869.000596c-.02623-1.395586-.01728-2.792364.02802-4.190334.0167-.513881.40598-.939531.91629-1.001531 6.63156-.808378 13.37759-1.066511 20.05148-.765456.60926.027423 1.10407.109692 1.55714.258133 3.06421 1.0063 2.92173 3.92624 2.82694 5.858956l-.02206.488246c-.16632 4.224911 2.02214 8.503474 5.85479 11.445471 3.83264 2.941997 8.53149 3.951874 12.56981 2.698769.26707-.082269.53593-.17348.80599-.264095 1.4087-.475131 3.00698-1.012857 4.64519-.558592 1.69843.471555 2.85794 1.87489 3.70507 2.899671 1.45878 1.764006 2.27789 3.5143 3.07017 5.207364.59079 1.262049 1.15653 2.471039 1.96849 3.668703 1.96967-3.200129 1.9655-7.457232 1.76102-11.904506-.43101-9.356564-.26051-18.549783-.09657-27.4395619.16394-8.8563947.33384-18.0138448-.0936-27.3018516-.0155-.3284783.12579-.6456297.37975-.854282 1.8427-1.5136232 4.32566-2.1485222 6.81637-1.7437368 2.09546.3415936 3.94949 1.3854511 5.22644 2.9157664 6.81816-.8834933 9.5217 2.1556761 10.58404 5.0118276 1.33954 3.6019343 1.61735 9.763734.84832 18.837127-1.73182 20.4538843-1.17144 41.1182093 1.66504 61.4486903 1.04863-1.130299 1.40572-3.146477 1.17203-4.945059-.10909-.842955-.29509-1.680545-.49182-2.566423-.40717-1.83614-.82865-3.734876-.53117-5.706938.29271-1.94285 1.66087-3.820721 3.40401-4.673215.89661-.438169 1.81885-.569918 2.68446-.39465.27483-1.251318-.12698-2.713076-.54726-4.243391-.20567-.748764-.4185-1.522566-.55561-2.293983-.3875-2.169984.60628-4.801983 2.26298-5.991897.58244-.418497 1.22032-.634303 1.86118-.644438l-.09598-6.425893c-.00418-.290325.11207-.568727.32192-.769033.20925-.200902.49182-.305229.78215-.288536l12.07321.702264c-.01132-.329075-.01907-.656957-.02444-.984839l-.85309-52.9905232c-.00656-.4179007.23608-.7988401.61761-.9693388 1.06234-.4745349 2.15568-.8715703 3.26988-1.1911064-.03636-.3731895-.04173-.7630712-.0149-1.1672604.17884-2.7041334.77559-10.3807486 1.3771-13.388322.05544-.275421.21879-.5168615.45367-.6694757.23488-.1532104.52104-.2056716.79586-.1448643 1.05399.2342867 1.54939-.1061146 1.82958-.3833241 1.6263-1.6054301 1.40453-6.8867172.7279-10.1244043-.12459-.5967455-.27721-1.1952794-.42446-1.7747366-.53832-2.1151379-1.09453-4.3024098-.37736-6.6738919.37438-1.2387984 1.29245-1.5082579 1.92079-1.6119879-.25276-.4101507-.41849-.8650127-.46618-1.3657781-.36187-3.8350287.2009-7.6712498.74459-11.380491.18898-1.2876826.38034-2.59146122.53236-3.89941288-.3255-2.53303857-.40777-5.03925042.23309-7.35886752.13414-.48526557.59198-.80599392 1.09692-.76187887.50136.04411505.90018.43995822.94728.94131982.22594 2.39711652.09121 4.79423304-.17467 7.16034979.16215 1.21018317.38034 2.43586626.59495 3.64724166l.14586.823848c.74848 4.2625464 1.36715 8.6006409-.49043 12.2038037.8197.4125353 1.82243.6873602 2.64392.6873602h.0155c.2784 0 .54429.1108838.74042.307613.19673.1985178.30582.466785.30284.7457829-.01729 1.6876988-.07988 3.5184734-.14009 5.2884408-.15858 4.6350612-.32192 9.4137943.28496 12.2294077 1.74671-.1466527 3.17866-.056038 4.22014 1.0164346 1.71691 1.7675828 1.80037 5.5728041.28138 16.6844318.95861.0578265 1.75328.3839201 2.37267.974108 1.88264 1.796198 1.4564 5.4881509 1.11302 8.45459-.12222 1.0599536-.23787 2.0608883-.21223 2.7148641.09836 2.4823659.21163 4.9659241.3243 7.4500784.35329 7.7685693.71293 15.679115.61294 23.5964555 1.80788-.76133 4.85362-.185306 9.97247 1.861685 1.44626.578861 1.34491 2.160445 1.09274 3.475551 1.79441.209248 3.55365.435189 5.2944.658745 6.5952.846532 12.83927 1.650141 19.34207 1.318086.06617-1.241779-.02206-2.851382-.12817-4.787079-.10254-1.871909-.2182-3.993605-.22893-6.385356-.00178-.446516.28139-.84534.70346-.9908 2.84852-.9822494 7.95594-1.2087429 11.85396-1.2203047l.62097-.0000763c2.5386.0068202 4.43949.0984184 4.63277.1079662.53355.0268267.96039.4518812.9902.9854348.00187.0410566.11993 2.191738.25486 4.464566l.03403.569602c.11421 1.899486.2344 3.768781.30309 4.457722.09538.951454.186 1.81289.26886 2.60398.33981 3.226361.56396 5.358191.48288 7.819691-.1228 3.756933 1.87132 7.247388 5.08039 8.89276 5.44642 2.79296 12.00168 3.194168 17.78552 3.548281l6.9008.42252c.13162-2.188511.44195-4.333.78159-6.266155.08049-.457246.45248-.805994.9139-.856666 6.34959-.699284 12.79456-.821494 19.17276-.361863.20508-5.820206.6969-13.930818 4.58737-19.178125.10703-.265763.29294-.514137.68454-.730241.18705-.264242.49388-.432933.83344-.438032.09995.003377.19744.018962.29025.045736 1.29737-.29311 3.52012-.453228 7.38201-.395259 3.30909.048915 6.67517.252351 8.02059.360027l.22808.019007c.16949.014801.28648.026883.34303.03529.30404.045307.56873.220575.73506.463208 1.9965 2.716653 2.24629 6.23453 2.44719 9.063855l.59376 8.382456c.04249.599818.06362 1.420785.06738 2.413469l.0002.61582c-.00816 2.860361-.13709 6.900457-.30806 11.147288l-.04193 1.025877c-.16353 3.943981-.35749 7.997528-.52 11.395941-.01252.25396-.02445.504939-.03637.752937 1.26488-.021417 2.56693-.052126 3.91977-.091658.01176-.030471.02463-.059605.0389-.08826 2.80906-5.642554 10.53336-4.466351 16.04298-4.695869 8.10286-.342189 15.58811-6.117088 18.61297-13.593397.01729-.277806.03577-.552034.05544-.82209l.02743-.429824c.13949-2.242713.37259-4.511658 1.53627-5.460728 1.24834-1.018819 3.47019-.920454 5.11318-.660533 3.15303.501958 7.16511 2.063273 8.38901 3.970355.67961 1.058761 1.09572 2.203964 1.34908 3.408185 10.44871 3.742626 20.94392 6.643489 31.96315 7.09537 14.91267.608072 31.07488-3.33784 49.44641-12.071428 8.96669-4.263064 17.75452-9.277276 26.25323-14.126355 6.27805-3.581665 12.76952-7.285541 19.30212-10.669881 2.33512-1.209587 5.33435-2.4048666 7.82744-.903166.06319.037557.124.076307.18421.115653 1.63166.023249 3.24067.374381 4.63626 1.031934 1.94523.915089 3.66453 2.335117 5.07382 4.145623.14487.035172.28377.101345.40479.197921 9.83766 7.843537 24.76702 18.611187 40.77423 21.549607 9.72379 1.785467 17.65019 1.443277 24.23287-1.046242.04919-.023377.09747-.04076.1477-.054549 22.18261-6.089502 45.69502-8.50571 71.44446-7.813776l1.73332.050248 2.58642.088907 1.71707.06847 1.71274.075968 1.70967.083587 2.56148.139927 1.70744.103158 2.56398.169847 1.713.123478 1.71742.131817 1.72307.140275 1.72997.148853 1.73812.157551 2.62518.252898 1.76394.179821 1.77645.188939 1.79021.198176 1.80522.207534 1.82147.217012 1.83896.226609 2.79398.358172 1.88816.251127 2.87363.395512 1.94515.276396 2.96496.433976 3.02536.457595 2.05255.318384 3.13539.497858 3.20702.522556 3.28286.547659 4.50239.76996 3.47617.607806 3.56603.634258 4.90177.887524 5.07898.936229 6.61312 1.24024 6.92507 1.319714 16.01648 3.066409 8.67692 1.637275 5.01732.932839 3.36638.617888 4.28786.775012 3.31147.587074 2.37226.413107 2.28472.391015 2.92244.488887 2.79636.454167 2.68717.422051 1.95386.297028 2.53669.372111 1.86039.262562 2.43789.330144 1.80568.234076 1.7941.223697 1.67779.201268 1.67973.194017 1.12381.125762c2.25224.248883 4.53575.482451 6.91313.710355l3.05534.286681c.51499.047298 1.03288.094355 1.55365.14117l3.15928.277997c.53232.045851 1.06753.09146 1.60562.136828l3.26322.269314 3.3325.263524c.56119.043438 1.12527.086635 1.69224.12959l3.43643.25484 3.50573.24905 3.57501.243261c1.20322.080121 2.41799.159278 3.6443.23747l3.71359.231681c.6247.03813 1.25229.07602 1.88277.113668l3.81751.222996 3.8868.217205c1.30715.071437 2.62584.141908 3.95608.211415l4.02536.205624c.67667.033789 1.35623.067335 2.03867.100641l4.12928.196939 4.19857.191148 4.26785.185357 4.33713.179566 4.40641.173776 4.47568.167984 4.54496.162193 4.61425.156402 4.68351.150611 4.7528.144819 4.82206.139028 4.89135.133235 4.96061.127445 5.02989.121652 5.09916.11586 5.16843.110068 5.23771.104276 5.30697.098484 8.09034.136865 5.48015.084003 5.54941.07821 5.61869.072417 5.68794.066625 5.75722.060832 5.82648.055038 5.89574.049246 8.97348.063006 6.06891.034762 6.13816.028969 6.20743.023175 9.441.0239 600.59683.010864 3.23358.000724c.55228 0 1 .447715 1 1s-.44772 1-1 1l-3.23534-.000725-600.6021-.010871-9.44625-.023917-6.21092-.023193-6.14164-.028991-6.07239-.03479-8.9787-.063057-5.89923-.049286-8.71896-.084803-5.72607-.063784-5.6568-.069583-5.58755-.075382-5.51828-.081181-5.44902-.086981-5.37977-.092781-7.93979-.150045-5.20662-.10728-5.13737-.113079-5.0681-.11888-4.99886-.124679-4.9296-.13048-4.86035-.13628-4.79109-.142081-4.72184-.147881-4.65259-.153682-4.58334-.159482-4.51409-.165283-4.44484-.171084-4.37559-.176885-4.30634-.182686-4.2371-.188487-4.16784-.194289-4.09861-.20009c-.67732-.033831-1.35177-.067905-2.02333-.10222l-3.99473-.208792c-1.32004-.070565-2.62854-.142096-3.92549-.214594l-3.85625-.220396c-.63694-.037216-1.27099-.074673-1.90216-.112373l-3.75238-.229098-3.68314-.234901-3.61389-.240702c-1.1931-.081201-2.37465-.163369-3.54466-.246505l-3.47542-.252307c-.57347-.042534-1.14405-.085311-1.71174-.128329l-3.37156-.26101-3.30232-.266813c-1.08924-.089905-2.16693-.180777-3.23309-.272616l-3.16384-.278419c-.52154-.046886-1.0402-.094015-1.55596-.141385l-3.06-.287123c-2.58695-.247995-5.06275-.502578-7.50717-.776047l-2.24982-.258155-2.48773-.301024-2.74624-.35188-1.85267-.249004-2.8303-.397988-2.9141-.430793-2.00163-.307324-3.10934-.494035-3.25983-.537122-4.62378-.789848-4.34837-.766757-3.98356-.718284-6.47639-1.191945-8.84253-1.660464-22.65727-4.332091-4.06938-.770883-5.25421-.983688-5.06717-.934103-4.89007-.885476-3.55731-.632772-4.60406-.802688-2.24525-.384039-4.38314-.734065-3.19831-.521261-2.09214-.333786-2.06152-.322948-2.03217-.31223-2.00404-.301633-1.97716-.291155-1.95153-.280798-2.88193-.402037-1.89287-.255427-2.79977-.364545-1.84197-.230806-2.72926-.328176-1.79885-.206936-1.78378-.197597-1.76994-.188379-1.75735-.17928-1.746-.170301-1.73589-.161443-1.72703-.152703-1.71941-.144085-1.71304-.135585-1.70789-.127206c-.28429-.020509-.56842-.040675-.85241-.060498l-2.55295-.169256-1.69994-.102788-2.55-.139408c-.28347-.014517-.567-.028713-.85064-.04259l-1.70317-.079449-1.70674-.071909-2.5695-.09399-.85963-.02769-1.72488-.050009c-25.4241-.683192-48.62785 1.68337-70.50251 7.645008-.08655.073968-.18651.133095-.29789.175234-6.94812 2.627827-15.23996 3.002805-25.34827 1.147588-14.6772-2.695191-28.35942-11.695854-38.25073-19.273508.36424.922839.66947 1.893966.91151 2.906824 1.12434 4.716137.81195 9.534216.50971 14.193123l-.55204 8.515398 45.45877-1.471893.03458-.000596c.56038 0 1.02419.445323 1.04207 1.009281.01848.57588-.4334 1.058165-1.00868 1.076645l-45.66206 1.477855-.73744 11.367375c-.03338.514477-.43757.927609-.95086.971724-.52878.04948-.98305-.29271-1.10466-.793475-.91271-3.768856-1.52257-7.572289-1.91066-11.39301l-7.43995.24144-.71955 12.992479c-.06796 1.222106-.27363 4.942078-3.07672 5.906052-1.10109.377958-2.1837.234883-3.13098-.41492-1.90768-1.307952-2.87106-4.480063-2.95988-6.874198l-.41731-11.276165-51.85188 1.678756c-24.14047.780956-48.9212 1.583373-73.37704 4.456217l-.00814.548751-.01732 1.099748c-.05706 3.481415-.13501 6.915132-.23386 9.244342-.01431.348151-.2015.665898-.49958.847128-.29807.180037-.66709.200306-.98305.053653-2.47998-1.155337-2.9563-6.236914-3.11607-11.194492-1.80872.234287-3.61087.479304-5.41423.738033-.05842 7.324291-.66709 12.514963-3.07792 14.440525-.6188.493612-1.33895.745187-2.11811.745187-.31179 0-.63312-.039942-.96159-.121018-.47215-.116249-.80182-.544881-.79348-1.032531.05306-2.903247.062-6.184453.07154-9.658812.00238-1.102876.00537-2.213502.01013-3.321148-1.30616.213422-2.61292.434593-3.9161.662322-1.20065.211037-2.40248.427439-3.60551.645034-7.9529 1.436446-16.15858 2.916165-24.36331 2.483896-.1734.298484-.49404.50466-.86657.517-1.95835.064385-3.80939.112076-5.58532.141884-.08872 1.892022-.1526 3.351176-.1585 3.846558l-.00008.114854.00162.024961-.001-.019.00225.019061.00276.03301-.00001.011929-.003-.033.00474.054196zm189.0688-17.342406-6.12544.198518.41731 11.266626c.07094 1.927351.85905 4.410909 2.05433 5.230615.4024.276613.79407.324901 1.27218.162152.99319-.341593 1.54045-1.666237 1.6728-4.04845zm-205.5264 12.857711.03335.280566c.19275 1.602749.37304 2.959521.51979 3.781515l.17551.001436.4026-.000016c1.39212-.006031 3.75748-.068265 6.15576-.153839l.71953-.02634c2.59622-.097449 5.12065-.218455 6.37617-.321183.01828-.62284.06162-1.597164.13481-3.153261-5.06051.041689-9.60576-.081069-14.51752-.408878zm69.99602-6.205876c-.22892.028019-.45844.056634-.68736.084653.08439 2.551892.25523 4.602354.51008 6.145493l.05152.29775.01915-.766127c.04238-1.821697.07792-3.805654.10661-5.761769zm-70.98933-38.897151-.17172.024076c2.01796 8.168499 2.03251 16.765707.03381 24.945297-.23011.940128-.5258 1.889793-1.07784 2.667768.12758.689745.26589 1.375913.41492 2.059696l.00024.000418c.21104.96755.58244 4.402563 1.01107 8.380667.17095 1.583832.35595 3.296624.53882 4.916855 5.04285.345868 9.67591.474167 14.86109.429413.01371-.280787.02742-.573496.04173-.879917.12553-2.622441.27742-5.795198.41885-9.037061l.06607-1.538894c.2022-4.791965.36903-9.569002.3826-12.791024l.00052-.66607c-.00287-.961721-.02244-1.751417-.06264-2.317944l-.59377-8.382456c-.17288-2.441232-.3863-5.447613-1.826-7.656942-2.35222-.220969-10.68187-.590525-14.03775-.153882zm56.09573 29.762354c-4.05263 6.146896-10.94769 10.532767-18.30536 10.842764-.70265.029663-1.4237.039536-2.15146.043162l-.72956.002045-.36564.000401-.73139.001441c-3.65405.013091-7.23195.152124-9.27078 2.10982 7.83996.352324 15.79438-1.080223 23.50379-2.472232 1.2066-.21819 2.41261-.435785 3.61684-.646822 1.42777-.250382 2.85495-.49063 4.28691-.723129.01907-3.162572.05723-6.272683.14665-9.15745zm-82.55152-1.645736c.01239 4.571522 1.09203 8.988739 4.79015 11.362255 2.09726 1.346105 4.65116 1.734199 7.52937 2.071023 4.65773.545936 8.67215.960246 12.39645 1.259284-.19511-1.993164-.38936-4.390164-.60324-7.236695-.1866-2.477-.36246-4.817483-.496-5.43092-.07869-.360074-.1544-.721937-.22713-1.084396-1.13746.42267-2.37923.345171-3.27227.290921zm86.12186-7.837808c-.21402 1.741949-.65458 3.444551-1.28709 5.076212-.23369 3.863644-.31059 8.479032-.341 13.233323.89542-.140095 1.79203-.276613 2.68923-.410151-.00357-1.825409-.03696-3.609088-.06736-5.207364-.06737-3.609088-.12579-6.725757.06975-8.903491.05782-.642052.00119-1.331201-.13831-1.951196-.01669-.051865-.02981-.104326-.03815-.15798-.18541-.735052-.48885-1.354451-.8525-1.65193-.01192-.009538-.02325-.019077-.03457-.027423zm3.13693 4.031162c-.17944 2.067446-.11982 5.252076-.05663 8.621512.03219 1.725852.05723 3.375994.06379 4.943867 1.78248-.254556 3.56378-.495997 5.35044-.72611-.2009-4.855041-2.16104-9.487717-5.3576-12.839269zm2.93246.223556c2.66062 3.465416 4.27857 7.820287 4.50212 12.353407.26052-.032192.52044-.063788.78096-.095384.03159-2.501443.05186-4.835963.06081-6.5797.00596-1.285894-.01014-2.54675-.1556-3.732491-1.72943-.63013-3.45886-1.280529-5.18829-1.945832zm7.35827 2.724403c.06797.968146.07691 1.960735.07214 2.964054-.00894 1.683526-.02802 3.917298-.05783 6.31978 9.71902-1.135069 19.48037-1.946428 29.2304-2.559866-10.0791-.717167-19.69559-3.355128-29.24471-6.723968zm145.56775 4.594523-.51626.016692c.09657.939531.20746 1.877274.33265 2.814421zm-18.64636-34.477701c-6.26195 3.266898-12.49588 6.824121-18.53309 10.268076-8.53209 4.868155-17.35391 9.90204-26.39213 14.197893-11.99452 5.702764-23.08886 9.39889-33.52803 11.149185 8.32582-.351728 16.61289-.619399 24.82783-.885282l51.84234-1.678757-.83103-22.439061c-.10075-2.725595-.22654-6.118281 1.37651-8.944029.35172-.619995.76843-1.175606 1.2376-1.668025zm7.03337-.893628c-2.59146.14546-5.1555 1.296624-6.4557 3.590607-1.21495 2.140772-1.22211 4.706599-1.10645 7.838768l.83103 22.448004 6.31799-.20448 1.55357-28.039288c.11088-2.009023.06319-4.384678-1.14044-5.633611zm2.57775.190171c.71717 1.681738.74578 3.746799.64563 5.558497l-1.54283 27.85627 7.13471-.23071c-.7732-9.537197-.25992-19.156663.27662-28.570457-1.27696-1.774737-2.85914-3.158995-4.6303-3.991816-.58363-.274825-1.22031-.483477-1.88383-.621784zm8.40988 8.076035c-.45009 8.295419-.76546 16.718413-.08286 25.040061l.84414-.027422.56515-8.717492c.29212-4.505697.59436-9.164008-.45784-13.574321-.22594-.946685-.51805-1.857601-.86859-2.720826zm-477.90753 22.044888c.27422.926416.58005 1.845082.91628 2.754806.00894-.285555-.02087-.557996-.06617-.799436-.12997-.693322-.43281-1.368759-.85011-1.95537zm256.13718-21.453907-.0781.24446c-1.43567 4.611911-1.61389 10.017868-1.74535 13.992463-.00894.285555-.13533.555015-.34875.74459-.21282.190172-.49599.283768-.77916.261114-6.34005-.522823-12.757-.459035-19.08394.189575-.27408 1.653813-.5141 3.446075-.62349 5.259171l20.18154 1.235459c1.06413.065577 2.07281.087038 2.75362-.323113-1.2023-7.120503-1.29298-14.448534-.27637-21.603719zm-318.88667 18.615044c-2.07997 0-4.17484.137114-6.2077.324305-.26887.024442-.5109.154403-.6814.364247-.17229.212229-.24979.478708-.21879.750552.05783.500766.47513.88409.97053.89184 5.27592.082864 10.57211-.211633 15.81405-.866801-2.95809-1.101684-6.29652-1.464143-9.67669-1.464143zm384.36216-4.456694c.29867.444132.53415.96457.70882 1.518393 2.64452 1.041473 5.28189 2.062677 7.91925 3.038573-.18063-.493612-.40657-.962781-.68855-1.401547-.65159-1.014646-3.76647-2.528866-6.96064-3.036785-.35352-.056038-.67961-.094788-.97888-.118634zm-175.66864-14.883858-.02941.59992c-.23571 4.468971-.66273 8.927183-1.3651 13.350249-.40264 2.533529-.20336 3.110081 1.01084 5.13163l-.62734.039549c3.24961-.193153 6.61488-.447709 9.86926-.693322 3.11011-.234883 6.32216-.477516 9.44479-.668283.91926-1.315702.36723-3.016516-.62298-5.557901-.49063-1.260856-.99497-2.556288-1.18931-3.853509-4.29288-.457247-6.37821-1.127915-7.33562-2.33154-.83938-1.054588-.67425-2.288021-.51448-3.481512.07154-.532362.14487-1.082608.15381-1.681142.00119-.067365.00417-.136518.00834-.205671-2.82266-.298391-5.73919-.538051-8.8028-.648468zm112.4851-.457389c-1.03671 6.293548-1.18395 12.748654-.43817 19.085721 1.36518-6.270895 1.50885-12.768923.43817-19.085721zm-242.54891 1.769788c.18264 3.6777.62148 7.338155 1.31248 10.956733l.21428 1.082111.09798-.600407c.42274-2.816867.40018-5.697677-.07833-8.512536-.17049-1.002127-.46797-2.222444-1.26264-2.767325-.08883-.060807-.18302-.113268-.28377-.158576zm68.93752-40.5250398c-1.41824 17.304427-.86501 34.6887378 1.6418 51.8411468l.24144-40.2549843c.02146-3.6305495.04888-8.1088234-1.88324-11.5861625zm38.58934 46.8370698c.22177 1.372932.66471 2.607557 1.56549 3.486877.93774.913897 2.64392.897205 3.58942.308806.64682-.402401.83699-.979474.58065-1.765199-.33683-1.034319-1.35803-1.776525-2.5402-1.845082zm-188.00762-6.643489c-3.24543.638476-6.60116 1.298414-9.79294.923436-.65457-.0775-1.2698-.271844-1.80872-.566938.21223.653975.40896 1.313913.59019 1.978023 7.47571.129961 14.90254-.705841 22.16603-2.502635-3.12681-1.411681-7.04649-.64086-11.15456.168114zm-14.3195-1.065319c-.29689 1.073069-.26887 2.243907.1079 3.283591.33802.018481.67663.035173 1.01465.050077-.3261-1.127319-.70048-2.239733-1.12255-3.333668zm5.52451-76.1717899 2.67373 51.5865913c.23667 4.5676963.13473 10.0099437-2.415 15.7472846-.01788.039942-.03815.079288-.0614.117442l-.25515.418497c-1.29007 2.112157-3.69136 6.043166-2.25226 7.516847.36902.377362.92165.626553 1.55595.701071 2.86629.339209 6.05927-.290324 9.14613-.898397 3.52503-.692725 7.12935-1.401547 10.36525-.699879-1.9512-1.600661-3.15781-3.747395-4.29109-6.51472-3.54947-5.939436-1.06353-12.8559607 1.5494-18.8776652.10671-.2468059.21461-.4882463.3237-.7267061-1.06651.9186662-2.3834 1.5237577-3.8851 1.5678728-.55561.0184806-1.02061-.4012085-1.06949-.9514544-.44652-5.081577 1.33478-9.4376402 5.19544-12.8422492-.0155-.067961-.031-.135922-.0471-.203883l-3.7623-.367228c-.51984-.0506727-.92224-.4781118-.94132-.9997425-.13353-3.6233957.47335-7.3064064 1.73897-10.7294959l-.75651.6509951c-.30225.2599211-.7279.3249014-1.09334.1669218-.36663-.1579796-.61105-.5114961-.62953-.9097239l-.04293-.9413198-.47632.9478774c-.18182.3624588-.54965.5919763-.96278.574688-.40538-.011923-.76724-.2575365-.92761-.6295337l-.84057-1.9506007-1.39618 4.1837761c-.15619.4679773-.62.7624751-1.10943.7058409-.23668-.0274229-.44891-.1329413-.60987-.2903248-.0298.5800534-.04948 1.161299-.05901 1.7419484.06319 1.7234678.12399 3.4427625.17944 5.1441727.01907.5651496-.41612 1.0420691-.98067 1.0760496-.55501.0304036-1.0528-.3886894-1.10109-.9520505-.15023-1.7425445-.21163-3.4946275-.1848-5.2455181-.10493-2.8597284-.217-5.7283991-.32669-8.5380509-.17587-4.5206005-.35829-9.1950075-.50792-13.7406463-.09658-2.9431893-.6814-4.8973669-1.74255-5.8386867zm220.1951 71.7425799c-.47454.292709-.56754 1.012261-.66411 2.162233-.00775.088827-.01491.179441-.02325.26946 3.14647.116249 6.1296.364843 9.01318.672456.10254-.500169.2015-1.082607.14129-1.33299-5.68965-2.26954-7.74518-2.217079-8.46711-1.771159zm-203.12615-33.150852c-2.15687 2.2379446-3.70924 5.2019992-3.66214 9.0888929 1.8886-.5943609 3.26093-2.6159033 3.66691-4.5080813.31775-1.4832196.23488-3.045727-.00477-4.5808116zm4.46278-3.3688399c-.89244.5001693-1.78607 1.0766457-2.63737 1.736583.36842 1.8105056.61821 3.7223565.3875 5.640169 1.17978-2.3339247 2.10262-4.5963115 2.24987-7.376752zm178.7053-8.2018227c.17169.2211714.37677.4208814.61642.5997262 2.23317 1.6680259 6.99104 1.4206239 11.35664.2587288-3.83383-1.313317-7.99555-1.6018533-11.97306-.858455zm5.388-35.7814799c-.46917.2617095-.94728.327286-1.28828.3749779-.13712.0184806-.34219.0470958-.41015.0780956.00119.0053653-.01729.0393458-.03696.1061146-.54965 1.8158709-.1085 3.548877.4018 5.5561119.15321.6003224.3106 1.22151.44473 1.8617744.07571.3636511 1.826 8.9446248-1.30497 12.0362553-.52581.5198422-1.3783 1.0629342-2.64333 1.0629342h-.01907c-.52223 3.3616862-1.02836 9.9246944-1.1774 12.1763504-.01192.183614-.0155.3606704-.01013.5317652 1.64835-.3260936 3.32651-.4888424 5.00527-.4888424 2.95749 0 5.9132.5049385 8.70199 1.5124309 1.11122-8.1583038 1.50408-13.4437639.25932-14.725485-.50732-.5216307-1.53806-.5126885-3.38791-.3076131-.49481.0560381-.95563-.2444212-1.10825-.7153792-.96635-2.9837275-.78751-8.2125534-.59793-13.7483962.04888-1.4236046.09896-2.8871513.12519-4.2755831-.94371-.1526142-2.02154-.4977847-2.95392-1.0355114zm.14129-11.3471067c-.35412 2.698172-.59258 5.4297283-.34577 8.0927274.94907-2.3428669.79109-5.121519.34577-8.0927274z" fill="#1d2d3e" fill-rule="evenodd"></path></svg>