<svg height="23" viewBox="0 0 127 23" width="127" xmlns="http://www.w3.org/2000/svg"><path d="m376.5627 166 7.687433 21.818182h-4.218916l-1.805217-5.378182h-8.203l-1.804084 5.378182h-4.218916l7.687433-21.818182zm10.164793 5.454545 3.766979 12.153376h.170455l3.766979-12.153376h4.108054l-5.829579 16.363637h-4.261363l-5.829579-16.363637zm-12.517199-.980113h-.170455l-2.949839 8.786568h6.069zm40.613792.980113-5.829578 16.363637h-4.261364l-5.829579-16.363637h4.108055l3.766978 12.153376h.170455l3.766979-12.153376zm8.238608 16.687567c-1.596569 0-2.981152-.352284-4.153748-1.056851-1.172596-.704568-2.080272-1.689676-2.723028-2.955323s-.964134-2.740756-.964134-4.425326c0-1.693226.321378-3.174771.964134-4.444636.642756-1.269864 1.550432-2.25708 2.723028-2.961647 1.172596-.704568 2.557179-1.056852 4.153748-1.056852 1.596568 0 2.981151.352284 4.153747 1.056852 1.172596.704567 2.080272 1.691783 2.723028 2.961647.642756 1.269865.964134 2.75141.964134 4.444636 0 1.68457-.321378 3.159679-.964134 4.425326s-1.550432 2.250755-2.723028 2.955323c-1.172596.704567-2.557179 1.056851-4.153747 1.056851zm.016978-3.093817c.872248 0 1.598123-.239341 2.177624-.718023s1.013433-1.122852 1.301796-1.932511c.288364-.80966.432545-1.713091.432545-2.710294 0-.999978-.144181-1.906211-.432545-2.7187-.288363-.812489-.722295-1.460211-1.301796-1.943166-.579501-.482954-1.305376-.724431-2.177624-.724431-.883456 0-1.617792.241477-2.203008.724431-.585216.482955-1.022006 1.130677-1.310369 1.943166-.288364.812489-.432545 1.718722-.432545 2.7187 0 .997203.144181 1.900634.432545 2.710294.288363.809659.725153 1.453829 1.310369 1.932511s1.319552.718023 2.203008.718023zm17.221679 3.093817c-1.630638 0-3.0312-.358665-4.201688-1.075994-1.170488-.71733-2.069647-1.710954-2.697477-2.980874s-.941744-2.73013-.941744-4.380632c0-1.667702.319241-3.13754.957724-4.409513.638484-1.271972 1.541887-2.265569 2.710211-2.98079s2.55077-1.072832 4.147339-1.072832c1.332453 0 2.510764.243614 3.534934.730841s1.842346 1.171903 2.454529 2.054027.96233 1.914062 1.050443 3.095814h-3.690408c-.146373-.791127-.499739-1.450556-1.060097-1.978288s-1.303572-.791598-2.229642-.791598c-.792569 0-1.486095.211292-2.080578.633878-.594482.422585-1.056851 1.028414-1.387107 1.817488-.330255.789073-.495383 1.733315-.495383 2.832725 0 1.116499.162991 2.074585.488975 2.874256.325983.799672.786216 1.41399 1.380698 1.842957.594482.428966 1.292281.643449 2.093395.643449.565296 0 1.074524-.108643 1.527682-.325928s.832409-.532615 1.137751-.945989c.305342-.413375.513444-.912698.624306-1.497969h3.690408c-.093772 1.156338-.435763 2.179454-1.025973 3.069347-.59021.889892-1.392767 1.586636-2.407671 2.090232-1.014904.503595-2.208446.755393-3.580627.755393zm13.897762.008489c-1.039817 0-1.973072-.187156-2.799766-.561467-.826693-.374312-1.480102-.926875-1.960227-1.657688-.480125-.730812-.720187-1.633162-.720187-2.707047 0-.920411.17187-1.683544.515608-2.289401.343739-.605858.810353-1.089894 1.399842-1.45211.589488-.362216 1.254633-.635986 1.995433-.821311.740801-.185325 1.508207-.320601 2.302219-.405829.963023-.105202 1.742498-.198641 2.338423-.280317.595925-.081677 1.029885-.209157 1.30188-.382441.271995-.173285.407992-.443864.407992-.81174v-.068248c0-.801115-.236872-1.421842-.710616-1.862183-.473743-.440341-1.160167-.660511-2.05927-.660511-.944603 0-1.691756.206687-2.241461.620061-.549705.413375-.921825.89988-1.116361 1.459517l-3.59669-.511363c.28409-.994318.753201-1.82706 1.407331-2.498225.654131-.671164 1.453137-1.175426 2.397018-1.512784.94388-.337358 1.988275-.506037 3.133184-.506037.784135 0 1.567882.091969 2.35124.275907.783359.183938 1.498552.488281 2.14558.91303.647029.42475 1.16727.99934 1.560725 1.723772s.590182 1.628529.590182 2.712291v10.951705h-3.707386v-2.250033h-.127841c-.233044.45743-.561912.882873-.986606 1.276328-.424693.393455-.953813.709506-1.587358.948153-.633545.238648-1.377841.357971-2.232888.357971zm.997093-2.838134c.77559 0 1.447837-.154114 2.01674-.462342.568903-.308227 1.008523-.717301 1.318859-1.227222s.465504-1.068892.465504-1.676914v-1.926103c-.126398.102317-.332004.195729-.616816.280235s-.605829.15908-.963051.223722c-.357222.064641-.7102.12146-1.058933.170454-.348732.048995-.65094.091248-.906621.126759-.573842.079568-1.087675.207769-1.541499.384605-.453824.176835-.811767.423279-1.07383.73933s-.393094.722656-.393094 1.219815c0 .705899.258872 1.240318.776617 1.603255.517744.362937 1.176452.544406 1.976124.544406zm18.704598-13.857922v2.982955h-9.400468v-2.982955zm-7.082353-3.920454h3.860862v15.366544c0 .517023.078486.911532.235457 1.183527.156972.271995.367182.458069.630632.558222s.55714.15023.88107.15023c.23715 0 .456599-.018117.658348-.054349.201749-.036233.357277-.066445.466586-.090638l.647694 3.00859c-.207298.06958-.499878.147344-.877741.233293-.377863.085948-.840954.136025-1.389271.150229-.965909.02841-1.835577-.119323-2.609004-.443198-.773426-.323875-1.385636-.825279-1.836631-1.504211-.450994-.678933-.673661-1.532649-.668002-2.561147zm16.284121 20.608021c-1.596568 0-2.981151-.352284-4.153747-1.056851-1.172597-.704568-2.080273-1.689676-2.723028-2.955323-.642756-1.265647-.964134-2.740756-.964134-4.425326 0-1.693226.321378-3.174771.964134-4.444636.642755-1.269864 1.550431-2.25708 2.723028-2.961647 1.172596-.704568 2.557179-1.056852 4.153747-1.056852 1.596569 0 2.981152.352284 4.153748 1.056852 1.172596.704567 2.080272 1.691783 2.723028 2.961647.642756 1.269865.964133 2.75141.964133 4.444636 0 1.68457-.321377 3.159679-.964133 4.425326s-1.550432 2.250755-2.723028 2.955323c-1.172596.704567-2.557179 1.056851-4.153748 1.056851zm.016979-3.093817c.872248 0 1.598123-.239341 2.177624-.718023s1.013433-1.122852 1.301796-1.932511c.288364-.80966.432545-1.713091.432545-2.710294 0-.999978-.144181-1.906211-.432545-2.7187-.288363-.812489-.722295-1.460211-1.301796-1.943166-.579501-.482954-1.305376-.724431-2.177624-.724431-.883456 0-1.617792.241477-2.203008.724431-.585216.482955-1.022006 1.130677-1.31037 1.943166-.288363.812489-.432545 1.718722-.432545 2.7187 0 .997203.144182 1.900634.432545 2.710294.288364.809659.725154 1.453829 1.31037 1.932511s1.319552.718023 2.203008.718023z" fill="#fff" transform="translate(-364 -166)"/></svg>