<svg height="50" viewBox="0 0 50 50" width="50" xmlns="http://www.w3.org/2000/svg"><path d="m366.586182 107.999802c-1.418083 0-2.586182-1.168377-2.586182-2.586461v-44.8271586c0-.6853453.273702-1.3448149.758613-1.8275689.482755-.4849113 1.140072-.7586135 1.825418-.7586135 26.176303 0 47.415274 21.2389654 47.415274 47.413619 0 .685345-.273702 1.344815-.758613 1.829721-.482755.482754-1.142224.756462-1.827569.756462zm10.873934-19.5452565 5.01709 14.5454545h-3.295343l-1.079568-3.3184545h-5.251l-1.078657 3.3184545h-3.295343l5.01709-14.5454545zm-1.926047 3.3238636h-.113637l-1.790137 5.5051364h3.693zm16.431737.3125-3.812477 10.9090909h-3.409091l-3.812478-10.9090909h3.198797l2.261408 7.8068404h.113636l2.261408-7.8068404z" fill-rule="evenodd" transform="translate(-364 -58)"/></svg>