<svg height="98" viewBox="0 0 127 98" width="127" xmlns="http://www.w3.org/2000/svg"><path d="m876.977273 64v25.5681818c0 7.7651515-1.396781 16.0274622-4.190341 24.7869322-2.793561 8.759469-6.86553 17.234848-12.215909 25.426136s-11.813447 15.317235-19.389205 21.377841l-18.181818-14.772727c5.965909-8.522728 11.150568-17.400569 15.553977-26.633523 4.403409-9.232955 6.605114-19.105114 6.605114-29.6164774v-26.1363636zm72.727272 0v25.5681818c0 7.7651515-1.39678 16.0274622-4.19034 24.7869322-2.793561 8.759469-6.865531 17.234848-12.21591 25.426136-5.350378 8.191288-11.813447 15.317235-19.389204 21.377841l-18.181818-14.772727c5.965909-8.522728 11.150568-17.400569 15.553977-26.633523 4.403409-9.232955 6.605114-19.105114 6.605114-29.6164774v-26.1363636z" transform="translate(-823 -64)"/></svg>