<svg height="98" viewBox="0 0 127 98" width="127" xmlns="http://www.w3.org/2000/svg"><path d="m652 161.159091v-25.568182c0-7.765151 1.39678-16.027462 4.190341-24.786932 2.793561-8.759469 6.86553-17.2348482 12.215909-25.4261361s11.813447-15.3172348 19.389205-21.3778409l18.181818 14.7727273c-5.965909 8.5227272-11.150568 17.4005682-15.553978 26.6335227-4.403409 9.232955-6.605113 19.105114-6.605113 29.616477v26.136364zm72.727273 0v-25.568182c0-7.765151 1.39678-16.027462 4.190341-24.786932 2.79356-8.759469 6.86553-17.2348482 12.215909-25.4261361s11.813447-15.3172348 19.389204-21.3778409l18.181818 14.7727273c-5.965909 8.5227272-11.150568 17.4005682-15.553977 26.6335227-4.403409 9.232955-6.605113 19.105114-6.605113 29.616477v26.136364z" transform="translate(-652 -64)"/></svg>