<svg xmlns="http://www.w3.org/2000/svg" width="46" height="46" viewBox="0 0 46 46"><g fill="none"><path fill="#4285F4" d="M45.26 23.95c0-1.56-.13-3.13-.4-4.66H23v8.83h12.52a10.6 10.6 0 01-4.64 6.96v5.73h7.47c4.39-4 6.9-9.89 6.9-16.86z"></path><path fill="#34A853" d="M23.41 46c6.17 0 11.38-2.03 15.17-5.54l-7.37-5.73c-2.05 1.4-4.7 2.19-7.79 2.19-5.97 0-11.03-4.04-12.84-9.47H2.97v5.91A22.88 22.88 0 0023.4 46z"></path><path fill="#FBBC04" d="M10.39 27.43c-1-2.87-1-5.99 0-8.86v-5.96H2.52a22.67 22.67 0 000 20.78l7.87-5.96z"></path><path fill="#EA4335" d="M23.33 9.08a12.34 12.34 0 018.74 3.43l6.51-6.54A21.83 21.83 0 0023.33 0C14.72 0 6.83 4.9 2.97 12.64l7.57 5.9c1.8-5.43 6.85-9.46 12.8-9.46z"></path></g></svg>